<svg width="571" height="447" viewBox="0 0 571 447" fill="none" xmlns="http://www.w3.org/2000/svg">
<path d="M129.579 123.944L156.553 121.315C156.947 126.884 156.083 132.476 154.05 137.527C152.016 142.579 148.884 146.912 144.97 150.089C141.056 153.266 136.497 155.175 131.754 155.624C127.011 156.073 122.251 155.045 117.954 152.645C113.657 150.245 109.975 146.557 107.279 141.953C104.583 137.349 102.968 131.992 102.597 126.421C102.227 120.85 103.113 115.263 105.168 110.224C107.222 105.184 110.372 100.869 114.299 97.7139L129.579 123.944Z" fill="#EBEBEB"/>
<path d="M94.413 357.206H83.1528V373.879H94.413V357.206Z" fill="#E0E0E0"/>
<path d="M109.35 332.773H98.8211V373.88H109.35V332.773Z" fill="#E0E0E0"/>
<path d="M124.668 348.964H114.048V373.88H124.668V348.964Z" fill="#E0E0E0"/>
<path d="M140.299 338.28H129.221V373.888H140.299V338.28Z" fill="#E0E0E0"/>
<path d="M425.684 55.4902C425.684 55.4902 490.573 66.6205 485.068 137.515L418.223 132.312L425.684 55.4902Z" fill="#EBEBEB"/>
<path d="M200.033 205.853L195.29 194.803C192.44 196.54 190.212 199.416 189.009 202.911C188.227 205.12 187.918 207.52 188.109 209.902C188.3 212.283 188.985 214.573 190.105 216.572C190.383 217.086 190.685 217.581 191.011 218.056L201.114 208.418L200.033 205.853Z" fill="#E0E0E0"/>
<path d="M210.311 195.606C208.595 193.999 206.549 192.95 204.379 192.566C202.208 192.181 199.99 192.474 197.947 193.416L197.566 193.586L197.33 193.702C197.102 193.818 196.866 193.944 196.637 194.078L201.38 205.119L202.499 207.72L215.107 204.001C214.884 202.954 214.559 201.94 214.14 200.979C213.218 198.878 211.91 197.042 210.311 195.606Z" fill="#EBEBEB"/>
<path d="M202.332 209.482L192.229 219.119C194.095 221.824 196.692 223.7 199.589 224.436C202.487 225.171 205.512 224.723 208.163 223.165C210.814 221.607 212.932 219.032 214.168 215.868C215.403 212.703 215.68 209.138 214.955 205.763L202.347 209.473" fill="#F5F5F5"/>
<path d="M267.167 275.531L263.642 274.154L260.11 272.786L260.863 277.059L261.617 281.333L263.536 279.321L271.788 290.219L273.501 288.422L265.249 277.533L267.167 275.531Z" fill="#E0E0E0"/>
<path d="M486.789 244.348H509.994C509.995 249.71 508.647 254.954 506.121 259.422C503.595 263.889 500.002 267.383 495.793 269.463C491.584 271.544 486.946 272.121 482.459 271.12C477.972 270.119 473.837 267.586 470.57 263.838C467.304 260.09 465.052 255.293 464.097 250.049C463.142 244.805 463.525 239.346 465.2 234.357C466.875 229.368 469.766 225.07 473.511 222.001C477.257 218.933 481.69 217.231 486.256 217.107L486.789 244.348Z" fill="#E0E0E0"/>
<path d="M493.047 237.705L492.522 210.456C498.716 210.442 504.685 213.187 509.225 218.136C513.565 223.211 516.078 230.051 516.245 237.24L493.047 237.705Z" fill="#F5F5F5"/>
<path d="M355.946 134.994C355.938 134.884 355.938 134.774 355.946 134.663C355.946 134.413 355.946 134.109 355.946 133.769C355.946 132.929 355.946 131.776 355.9 130.337C355.9 127.377 355.847 123.247 355.809 118.357L355.992 118.563H344.732C344.686 118.616 345.105 118.124 344.922 118.33V122.854C344.922 124.329 344.922 125.777 344.922 127.181C344.922 129.979 344.922 132.598 344.922 134.985L344.755 134.789L352.886 134.896L355.17 134.941C355.449 134.923 355.728 134.923 356.007 134.941C355.754 134.975 355.5 134.99 355.246 134.985H352.962L344.732 135.093H344.572V134.994C344.572 132.607 344.572 129.988 344.572 127.19C344.572 125.786 344.572 124.338 344.572 122.863C344.572 122.121 344.572 121.37 344.572 120.61V118.339C344.397 118.554 344.815 118.053 344.777 118.107H356.037H356.213V118.312C356.175 123.256 356.144 127.431 356.121 130.435C356.121 131.847 356.121 132.983 356.076 133.814C356.076 134.172 356.076 134.458 356.076 134.708C356.076 134.958 355.946 135.039 355.946 134.994Z" fill="#263238"/>
<path d="M370.876 134.994C370.87 134.923 370.87 134.851 370.876 134.779C370.876 134.618 370.876 134.413 370.876 134.171C370.876 133.608 370.876 132.83 370.876 131.838C370.876 129.791 370.876 126.859 370.823 123.211C370.823 115.871 370.769 105.635 370.739 93.8878L370.929 94.1113H360.354C360.743 93.6464 360.461 93.9861 360.545 93.8878V105.957C360.545 109.837 360.545 113.556 360.545 117.051C360.545 124.033 360.507 130.148 360.491 134.931L360.362 134.779L368.082 134.869H370.153H370.701H370.891C370.891 134.869 370.838 134.869 370.724 134.869H370.206H368.15L360.362 134.958H360.24V134.994C360.24 130.166 360.24 124.051 360.187 117.114C360.187 113.618 360.187 109.899 360.187 106.019C360.187 104.076 360.187 102.095 360.187 100.074V93.9504C360.278 93.8431 359.989 94.1739 360.392 93.709H371.104V93.9325C371.104 105.742 371.043 116.032 371.021 123.434C371.021 127.064 370.975 129.979 370.96 132.017C370.96 132.982 370.96 133.742 370.96 134.297C370.96 134.529 370.96 134.726 370.96 134.878C370.96 135.03 370.876 135.039 370.876 134.994Z" fill="#263238"/>
<path d="M386.202 134.994C386.192 134.827 386.192 134.66 386.202 134.493C386.202 134.136 386.202 133.68 386.202 133.099C386.202 131.847 386.202 130.095 386.148 127.914C386.148 123.444 386.095 117.293 386.057 110.034L386.247 110.257H375.581C375.535 110.311 375.954 109.819 375.779 110.034V117.114C375.779 119.394 375.779 121.584 375.779 123.703C375.779 127.905 375.779 131.749 375.741 135.003L375.596 134.833L383.316 134.922L385.448 134.967H386.011H386.217C385.978 134.984 385.739 134.984 385.501 134.967H383.407L375.596 135.057H375.444V134.994C375.444 131.713 375.444 127.896 375.406 123.694C375.406 121.584 375.406 119.385 375.406 117.105V110.141L375.611 109.899H386.232H386.415V110.114C386.377 117.391 386.346 123.631 386.323 128.101C386.323 130.265 386.285 131.99 386.278 133.233C386.278 133.787 386.278 134.234 386.278 134.583C386.262 134.722 386.236 134.86 386.202 134.994Z" fill="#263238"/>
<path d="M401.832 134.994C401.822 134.932 401.822 134.868 401.832 134.806C401.832 134.663 401.832 134.493 401.832 134.279C401.832 133.787 401.832 133.126 401.832 132.276C401.832 130.488 401.832 127.976 401.778 124.829C401.778 118.482 401.725 109.631 401.687 99.386L401.885 99.6095H390.754C391.143 99.1446 390.861 99.4933 390.952 99.386V101.996C390.952 102.89 390.952 103.74 390.952 104.589V109.658C390.952 112.975 390.952 116.157 390.952 119.179C390.952 125.214 390.952 130.578 390.907 134.976L390.777 134.815L398.863 134.905H401.07H401.641H401.855C401.794 134.912 401.733 134.912 401.672 134.905H401.116H398.946L390.777 134.994H390.64C390.64 130.596 390.64 125.232 390.594 119.197V109.676V99.4396C390.678 99.3323 390.389 99.6631 390.792 99.1982H402.06V99.4217C402.06 109.721 401.992 118.634 401.969 125.017C401.969 128.146 401.969 130.649 401.915 132.41C401.915 133.242 401.915 133.894 401.915 134.368C401.897 134.578 401.869 134.787 401.832 134.994Z" fill="#263238"/>
<path d="M209.626 315.251H210.387H212.671L221.533 315.206L254.171 315.126L254.026 315.296C254.001 307.557 252.508 299.922 249.656 292.946C248.061 289.112 246.088 285.512 243.779 282.218C241.328 278.752 238.514 275.665 235.404 273.027C232.137 270.27 228.571 268.039 224.799 266.394C222.849 265.568 220.855 264.893 218.83 264.374C208.065 261.667 196.828 263.805 187.341 270.363C179.72 275.618 173.585 283.391 169.701 292.713C166.077 301.425 164.62 311.162 165.499 320.803C166.239 329.036 168.634 336.946 172.488 343.879C176.341 350.813 181.541 356.573 187.661 360.684L187.463 360.747C194.315 346.72 199.82 335.348 203.657 327.481L208.065 318.452L209.222 316.118C209.481 315.6 209.618 315.34 209.618 315.34C209.618 315.34 209.496 315.627 209.245 316.163C208.994 316.699 208.605 317.504 208.11 318.541L203.756 327.633C199.949 335.5 194.475 346.881 187.714 360.917L187.638 361.069L187.516 360.988C181.343 356.859 176.094 351.066 172.203 344.087C168.311 337.108 165.888 329.143 165.133 320.848C164.242 311.123 165.704 301.301 169.351 292.508C173.267 283.106 179.456 275.267 187.143 269.97C196.714 263.36 208.049 261.207 218.906 263.935C220.95 264.462 222.961 265.146 224.928 265.983C228.721 267.647 232.306 269.902 235.587 272.688C241.735 277.871 246.673 284.789 249.946 292.803C252.815 299.838 254.306 307.54 254.308 315.34V315.51H254.164L221.586 315.43L212.701 315.385H210.417L209.626 315.251Z" fill="#263238"/>
<path d="M347.404 348.946L367.914 345.263C368.564 350.294 367.856 355.438 365.889 359.973C363.922 364.507 360.795 368.204 356.947 370.546C353.099 372.887 348.724 373.754 344.434 373.026C340.145 372.298 336.158 370.011 333.032 366.486C329.907 362.962 327.799 358.376 327.006 353.373C326.213 348.37 326.775 343.201 328.611 338.592C330.447 333.982 333.467 330.164 337.246 327.673C341.025 325.181 345.373 324.142 349.68 324.701L347.404 348.946Z" fill="#263238"/>
<path d="M354.058 324.808L351.568 343.474L367.176 340.032C367.176 340.032 364.884 329.573 354.058 324.808Z" fill="#263238"/>
<path d="M303.772 185.764L361.504 225.994C355.559 237.758 347.111 247.504 336.989 254.276C326.868 261.049 315.421 264.615 303.772 264.624C266.954 264.624 236.653 229.043 236.653 185.809C236.653 143.013 266.345 107.638 302.775 107.003L303.772 185.764Z" fill="#ED0E86"/>
<path opacity="0.3" d="M241.259 157.165L274.986 153.697L267.289 119.725C267.289 119.725 249.717 133.421 241.259 157.165Z" fill="black"/>
<path d="M521.833 319.257L515.423 318.854L515.986 304.747L525.373 305.221V306.115C525.373 310.022 525.282 325.962 524.505 328.527C523.653 331.379 521.833 319.257 521.833 319.257Z" fill="#FF725E"/>
<g opacity="0.5">
<path d="M525.076 310.326C524.073 310.077 523.184 309.402 522.579 308.43C521.976 307.468 521.704 306.274 521.818 305.087L525.175 305.266L525.076 310.326Z" fill="white"/>
</g>
<g opacity="0.4">
<path d="M522.899 325.193C522.899 325.193 523.767 329.448 524.376 328.956C524.985 328.465 525.625 312.355 525.373 305.221H525.099L524.498 323.995C524.498 323.995 522.96 324.37 522.899 325.193Z" fill="white"/>
</g>
<path d="M525.107 305.007C525.107 305.007 525.107 305.087 525.107 305.248C525.107 305.409 525.107 305.686 525.107 305.946C525.107 306.643 525.107 307.501 525.107 308.52C525.107 310.684 525.031 313.688 524.901 316.995C524.772 320.303 524.604 323.253 524.452 325.453C524.376 326.463 524.315 327.321 524.262 328.018C524.262 328.269 524.216 328.501 524.201 328.707C524.186 328.912 524.201 328.948 524.201 328.948C524.191 328.868 524.191 328.787 524.201 328.707C524.201 328.501 524.201 328.269 524.201 328.009C524.239 327.312 524.285 326.454 524.345 325.444C524.467 323.28 524.62 320.294 524.749 316.986C524.878 313.679 524.955 310.684 525 308.511C525 307.501 525 306.643 525.054 305.946C525.054 305.686 525.054 305.454 525.054 305.248C525.061 305.165 525.079 305.084 525.107 305.007Z" fill="#263238"/>
<path d="M524.688 324.031C524.32 324.122 523.962 324.263 523.622 324.451C523.306 324.687 523.015 324.966 522.754 325.283C522.9 324.861 523.17 324.515 523.516 324.308C523.864 324.048 524.281 323.949 524.688 324.031Z" fill="#263238"/>
<path d="M523.036 319.776C523.036 319.776 522.838 319.999 522.556 320.196C522.393 320.331 522.206 320.423 522.008 320.464C522.008 320.464 522.199 320.232 522.48 320.044C522.762 319.856 523.036 319.731 523.036 319.776Z" fill="#263238"/>
<path d="M522.579 318.605C522.579 318.605 522.473 318.846 522.275 319.087C522.077 319.329 521.902 319.481 521.871 319.445C521.841 319.409 521.978 319.195 522.176 318.962C522.374 318.73 522.549 318.569 522.579 318.605Z" fill="#263238"/>
<path d="M521.513 317.817C521.575 318.058 521.593 318.31 521.567 318.559C521.578 318.809 521.544 319.059 521.468 319.292C521.406 319.052 521.388 318.799 521.414 318.55C521.403 318.301 521.437 318.051 521.513 317.817Z" fill="#263238"/>
<path d="M520.683 317.522C520.811 317.773 520.872 318.062 520.859 318.354C520.882 318.646 520.837 318.939 520.729 319.203C520.704 318.924 520.704 318.642 520.729 318.363C520.694 318.085 520.679 317.804 520.683 317.522Z" fill="#263238"/>
<path d="M521.985 320.195C522.014 320.494 521.999 320.797 521.94 321.089C521.893 321.415 521.822 321.735 521.727 322.046C521.669 322.236 521.595 322.419 521.506 322.591C521.448 322.692 521.362 322.765 521.262 322.797C521.204 322.811 521.144 322.804 521.089 322.777C521.035 322.75 520.989 322.704 520.958 322.645C520.826 322.292 520.803 321.896 520.893 321.525C520.984 321.155 521.181 320.833 521.452 320.615C521.608 320.481 521.788 320.389 521.978 320.347C522.045 320.326 522.116 320.326 522.183 320.347C521.944 320.43 521.718 320.556 521.513 320.723C521.301 320.917 521.14 321.177 521.049 321.474C520.927 321.823 520.927 322.215 521.049 322.564C521.133 322.707 521.285 322.663 521.369 322.511C521.451 322.352 521.52 322.184 521.574 322.01C521.674 321.72 521.756 321.421 521.818 321.116C521.947 320.535 521.963 320.195 521.985 320.195Z" fill="#263238"/>
<path d="M522.008 320.428C521.843 320.532 521.65 320.561 521.468 320.508C521.269 320.467 521.081 320.372 520.919 320.231C520.806 320.15 520.713 320.036 520.649 319.899C520.585 319.763 520.552 319.609 520.554 319.453C520.563 319.408 520.58 319.365 520.603 319.327C520.626 319.289 520.656 319.257 520.69 319.233C520.724 319.209 520.762 319.193 520.801 319.186C520.841 319.18 520.881 319.182 520.919 319.194C521.044 319.217 521.162 319.275 521.262 319.364C521.428 319.493 521.579 319.646 521.711 319.82C521.843 319.969 521.942 320.153 522.001 320.356C522.001 320.356 521.871 320.169 521.635 319.9C521.501 319.745 521.35 319.609 521.186 319.498C521.026 319.364 520.737 319.266 520.699 319.498C520.661 319.731 520.851 319.963 521.003 320.115C521.145 320.252 521.312 320.347 521.49 320.392C521.661 320.426 521.835 320.438 522.008 320.428Z" fill="#263238"/>
<path d="M521.803 305.113C521.803 305.113 521.757 305.516 521.803 306.159C521.855 306.992 522.1 307.793 522.511 308.475C522.93 309.15 523.503 309.673 524.163 309.986C524.673 310.236 525.015 310.272 525.015 310.307C524.935 310.323 524.853 310.323 524.772 310.307C524.551 310.273 524.334 310.21 524.125 310.12C523.429 309.825 522.824 309.293 522.389 308.591C521.963 307.882 521.723 307.044 521.696 306.177C521.693 305.919 521.711 305.662 521.749 305.408C521.751 305.307 521.769 305.207 521.803 305.113Z" fill="#263238"/>
<path d="M516.747 306.303C517.571 306.247 518.398 306.247 519.222 306.303C520.046 306.309 520.87 306.371 521.688 306.491C520.864 306.547 520.038 306.547 519.214 306.491C518.389 306.485 517.566 306.422 516.747 306.303Z" fill="#263238"/>
<path d="M523.797 312.007C523.909 312.687 523.943 313.382 523.896 314.072C523.897 314.766 523.82 315.457 523.668 316.128C523.668 316.128 523.714 315.234 523.752 314.072C523.79 312.91 523.797 312.007 523.797 312.007Z" fill="#263238"/>
<path d="M523.934 309.324C523.934 309.324 524.102 309.405 524.277 309.512C524.452 309.619 524.612 309.673 524.604 309.718C524.597 309.762 524.414 309.78 524.208 309.664C524.003 309.548 523.904 309.324 523.934 309.324Z" fill="#263238"/>
<path d="M522.876 308.171C522.876 308.171 523.021 308.242 523.143 308.394C523.264 308.546 523.341 308.698 523.31 308.725C523.28 308.752 523.158 308.663 523.036 308.511C522.914 308.359 522.846 308.207 522.876 308.171Z" fill="#263238"/>
<path d="M522.427 306.643C522.427 306.643 522.427 306.848 522.511 307.054C522.594 307.259 522.655 307.42 522.625 307.456C522.594 307.492 522.435 307.367 522.374 307.099C522.313 306.83 522.389 306.643 522.427 306.643Z" fill="#263238"/>
<path d="M522.229 305.578C522.229 305.578 522.328 305.65 522.358 305.766C522.389 305.882 522.358 305.998 522.358 306.007C522.358 306.016 522.267 305.945 522.229 305.819C522.191 305.694 522.191 305.596 522.229 305.578Z" fill="#263238"/>
<path d="M477.211 390.446L473.321 384.42L482.845 375.793L488.616 384.509L488.053 385.082C485.54 387.638 475.11 397.848 472.94 398.813C470.504 399.913 477.211 390.446 477.211 390.446Z" fill="#FF725E"/>
<g opacity="0.5">
<path d="M485.106 387.568C484.625 386.497 484.5 385.254 484.756 384.081C484.996 382.92 485.599 381.908 486.446 381.247L488.502 384.376L485.106 387.568Z" fill="white"/>
</g>
<g opacity="0.4">
<path d="M474.052 395.238C474.052 395.238 471.844 398.769 472.529 398.992C473.214 399.216 484.117 389.364 488.586 384.528L488.403 384.286L475.81 395.908C475.81 395.908 474.623 394.764 474.052 395.238Z" fill="white"/>
</g>
<path d="M488.578 384.144C488.578 384.144 488.532 384.206 488.433 384.313L487.984 384.778L486.309 386.432C484.886 387.818 482.906 389.704 480.675 391.734C478.445 393.763 476.389 395.533 474.889 396.803L473.1 398.287L472.605 398.68C472.499 398.769 472.438 398.814 472.43 398.805L472.59 398.653L473.07 398.233L474.828 396.704C476.351 395.417 478.353 393.62 480.584 391.591C482.815 389.561 484.809 387.702 486.241 386.334L487.946 384.725L488.411 384.287L488.578 384.144Z" fill="#263238"/>
<path d="M475.955 396.087C475.659 395.816 475.337 395.588 474.996 395.407C474.637 395.276 474.267 395.195 473.892 395.166C474.269 395.015 474.682 395.044 475.042 395.246C475.424 395.385 475.749 395.684 475.955 396.087Z" fill="#263238"/>
<path d="M477.661 391.859C477.46 391.866 477.261 391.814 477.082 391.707C476.77 391.573 476.534 391.43 476.549 391.385C476.75 391.382 476.949 391.438 477.128 391.546C477.44 391.68 477.676 391.814 477.661 391.859Z" fill="#263238"/>
<path d="M478.117 390.679C478.117 390.723 477.889 390.741 477.615 390.679C477.341 390.616 477.112 390.598 477.112 390.553C477.112 390.509 477.341 390.482 477.622 390.509C477.904 390.536 478.117 390.679 478.117 390.679Z" fill="#263238"/>
<path d="M477.912 389.185C477.912 389.185 477.737 389.462 477.463 389.713C477.189 389.963 476.952 390.142 476.93 390.106C476.907 390.07 477.105 389.829 477.379 389.579C477.653 389.328 477.889 389.149 477.912 389.185Z" fill="#263238"/>
<path d="M477.592 388.292C477.51 388.568 477.359 388.808 477.158 388.98C476.861 389.302 476.549 389.454 476.534 389.409C476.518 389.365 476.777 389.159 477.067 388.855C477.356 388.551 477.554 388.265 477.592 388.292Z" fill="#263238"/>
<path d="M476.701 391.179C476.523 391.402 476.315 391.589 476.085 391.733C475.841 391.897 475.586 392.038 475.323 392.153C475.164 392.226 474.998 392.277 474.828 392.305C474.724 392.325 474.618 392.296 474.531 392.225C474.488 392.178 474.457 392.118 474.441 392.052C474.425 391.986 474.424 391.916 474.44 391.849C474.536 391.629 474.672 391.436 474.839 391.284C475.005 391.133 475.198 391.026 475.403 390.971C475.609 390.917 475.822 390.916 476.028 390.969C476.234 391.021 476.427 391.127 476.595 391.277C476.654 391.323 476.703 391.384 476.739 391.456C476.529 391.294 476.297 391.173 476.054 391.098C475.799 391.04 475.536 391.065 475.293 391.17C474.99 391.295 474.741 391.555 474.6 391.894C474.562 392.064 474.684 392.162 474.844 392.144C475 392.114 475.153 392.066 475.3 392.001C475.562 391.9 475.817 391.774 476.062 391.626C476.45 391.366 476.686 391.161 476.701 391.179Z" fill="#263238"/>
<path d="M476.595 391.358C476.595 391.358 476.381 391.278 476.199 390.92C476.092 390.717 476.029 390.487 476.016 390.249C475.996 390.095 476.01 389.937 476.059 389.791C476.107 389.645 476.186 389.516 476.29 389.418C476.362 389.378 476.444 389.372 476.52 389.402C476.595 389.432 476.658 389.495 476.694 389.579C476.753 389.709 476.79 389.852 476.8 389.999C476.827 390.23 476.827 390.465 476.8 390.696C476.785 390.91 476.731 391.118 476.64 391.304C476.64 391.304 476.678 391.063 476.694 390.679C476.712 390.459 476.712 390.237 476.694 390.017C476.694 389.794 476.549 389.463 476.374 389.57C476.301 389.658 476.246 389.764 476.212 389.88C476.177 389.995 476.165 390.119 476.176 390.241C476.181 390.458 476.228 390.672 476.313 390.866C476.396 391.039 476.49 391.203 476.595 391.358Z" fill="#263238"/>
<path d="M486.378 381.265C486.378 381.265 486.081 381.479 485.693 381.926C485.184 382.513 484.82 383.252 484.642 384.063C484.476 384.876 484.508 385.728 484.733 386.521C484.901 387.138 485.099 387.469 485.076 387.487C485.053 387.505 485.015 387.415 484.924 387.263C484.808 387.043 484.711 386.809 484.634 386.566C484.373 385.753 484.327 384.865 484.504 384.021C484.681 383.177 485.071 382.415 485.624 381.837C485.787 381.663 485.966 381.51 486.157 381.381C486.224 381.326 486.299 381.287 486.378 381.265Z" fill="#263238"/>
<path d="M482.328 377.501C483.412 378.952 484.429 380.471 485.373 382.051C484.801 381.353 484.266 380.612 483.774 379.834C483.254 379.09 482.771 378.311 482.328 377.501Z" fill="#263238"/>
<path d="M483.188 387.558C482.822 388.096 482.397 388.574 481.924 388.98C481.477 389.433 480.98 389.815 480.447 390.115C480.447 390.07 481.079 389.552 481.84 388.845C482.602 388.139 483.157 387.522 483.188 387.558Z" fill="#263238"/>
<path d="M485.053 385.868C485.053 385.868 485.106 386.065 485.152 386.289C485.198 386.512 485.259 386.7 485.228 386.727C485.198 386.753 485.061 386.593 485.007 386.333C484.954 386.074 485.015 385.859 485.053 385.868Z" fill="#263238"/>
<path d="M485.084 384.197C485.122 384.197 485.137 384.376 485.084 384.582C485.03 384.787 485.015 384.957 484.969 384.948C484.924 384.939 484.916 384.769 484.969 384.564C485.023 384.358 485.038 384.197 485.084 384.197Z" fill="#263238"/>
<path d="M485.776 382.82C485.776 382.865 485.67 382.972 485.563 383.16C485.457 383.348 485.419 383.526 485.38 383.517C485.342 383.508 485.32 383.294 485.449 383.061C485.578 382.829 485.731 382.775 485.776 382.82Z" fill="#263238"/>
<path d="M486.347 381.944C486.385 381.944 486.347 382.079 486.347 382.186C486.347 382.293 486.218 382.365 486.187 382.338C486.157 382.311 486.188 382.204 486.226 382.096C486.264 381.989 486.317 381.927 486.347 381.944Z" fill="#263238"/>
<path d="M422.395 213.049L412.978 198.996C412.978 198.996 397.545 212.924 395.81 211.878C386.209 205.862 378.497 194.892 375.878 190.833C375.787 190.118 375.703 189.269 375.634 188.259C375.581 187.395 375.656 186.527 375.855 185.693C376.068 184.627 376.407 183.601 376.86 182.644C377.34 181.831 376.731 180.749 376.007 181.044C375.284 181.339 373.906 183.538 373.426 186.685C372.947 189.832 370.876 185.434 370.099 183.842C369.323 182.251 366.711 177.495 366.102 177.388C365.219 177.236 364.915 178.282 365.722 179.882C366.529 181.482 368.683 186.328 367.952 186.766C367.222 187.204 363.384 179.077 363.384 179.077C363.384 179.077 362.798 177.182 361.938 177.656C360.415 178.55 365.044 186.81 365.501 187.588C365.821 188.125 365.044 188.643 364.74 188.044C364.435 187.445 361.032 179.819 359.448 180.687C358.23 181.348 363.255 187.544 363.186 189.582C363.118 191.62 359.799 184.423 358.657 185.112C358.23 185.371 357.941 185.63 360.37 189.43C362.216 192.088 364.186 194.625 366.27 197.029H366.232C366.232 197.029 388.661 238.224 404.512 227.425C421.261 216.008 422.395 213.049 422.395 213.049Z" fill="#EB996E"/>
<path d="M332.208 177.969L392.909 222.606C392.909 222.606 402.959 210.627 403.476 180.999L332.208 177.969Z" fill="#455A64"/>
<path d="M422.38 256.883C422.38 256.883 457.462 316.781 460.447 318.247C463.431 319.713 519.648 323.897 519.648 323.897L520.592 298.954C520.592 298.954 471.722 293.867 471.159 292.696C470.595 291.525 439.419 230.054 439.419 230.054L422.38 256.883Z" fill="#263238"/>
<path d="M516.945 298.069C517.06 298.069 516.808 303.702 516.397 310.639C515.986 317.576 515.56 323.155 515.446 323.155C515.331 323.155 515.583 317.514 516.001 310.576C516.42 303.639 516.824 298.051 516.945 298.069Z" fill="#455A64"/>
<path d="M471.387 292.884C470.174 295.097 468.743 297.134 467.124 298.954C467.67 297.802 468.335 296.734 469.103 295.771C469.763 294.705 470.53 293.736 471.387 292.884Z" fill="#455A64"/>
<path d="M471.144 293.313C471.098 294.562 470.916 295.8 470.603 296.996C470.422 298.228 470.112 299.429 469.682 300.572C469.912 298.088 470.403 295.646 471.144 293.304V293.313Z" fill="#455A64"/>
<path d="M481.041 302.951C480.822 303.095 480.656 303.33 480.576 303.61C480.496 303.89 480.507 304.195 480.608 304.465C480.709 304.736 480.892 304.952 481.122 305.073C481.351 305.194 481.611 305.21 481.85 305.118C482.089 305.026 482.291 304.834 482.415 304.577C482.54 304.321 482.579 304.019 482.524 303.731C482.47 303.442 482.326 303.188 482.121 303.017C481.916 302.847 481.664 302.772 481.414 302.807" fill="#455A64"/>
<path d="M452.757 278.49C452.542 278.639 452.382 278.875 452.308 279.155C452.233 279.434 452.25 279.736 452.355 280.002C452.459 280.268 452.644 280.479 452.874 280.593C453.103 280.708 453.361 280.718 453.596 280.622C453.832 280.526 454.029 280.331 454.148 280.074C454.268 279.817 454.302 279.517 454.244 279.232C454.186 278.948 454.04 278.698 453.834 278.533C453.628 278.368 453.377 278.298 453.13 278.338" fill="#455A64"/>
<path d="M488.403 313.535C488.188 313.683 488.028 313.92 487.953 314.2C487.879 314.479 487.896 314.781 488 315.047C488.105 315.313 488.29 315.524 488.519 315.638C488.749 315.753 489.006 315.763 489.242 315.667C489.477 315.571 489.674 315.376 489.794 315.119C489.914 314.862 489.948 314.562 489.89 314.277C489.832 313.993 489.686 313.743 489.48 313.578C489.274 313.413 489.023 313.343 488.776 313.383" fill="#455A64"/>
<path d="M506.401 316.834C506.181 316.979 506.016 317.214 505.936 317.494C505.856 317.774 505.867 318.079 505.968 318.349C506.069 318.619 506.252 318.836 506.482 318.957C506.711 319.078 506.971 319.094 507.21 319.002C507.449 318.91 507.651 318.717 507.775 318.461C507.9 318.204 507.939 317.903 507.884 317.614C507.83 317.326 507.686 317.072 507.481 316.901C507.276 316.731 507.024 316.656 506.774 316.691" fill="#455A64"/>
<path d="M498.879 303.433C498.734 303.529 498.611 303.666 498.522 303.832C498.432 303.998 498.379 304.187 498.367 304.382C498.356 304.578 498.385 304.774 498.453 304.953C498.521 305.132 498.626 305.288 498.758 305.408C498.89 305.528 499.045 305.608 499.21 305.64C499.375 305.673 499.544 305.657 499.702 305.594C499.86 305.531 500.002 305.423 500.117 305.28C500.231 305.137 500.313 304.963 500.356 304.774C500.388 304.587 500.383 304.394 500.341 304.21C500.299 304.026 500.222 303.856 500.115 303.712C500.008 303.569 499.875 303.456 499.726 303.383C499.576 303.31 499.414 303.278 499.252 303.29" fill="#455A64"/>
<path d="M460.112 305.972C459.892 306.115 459.726 306.349 459.646 306.629C459.565 306.908 459.576 307.213 459.676 307.483C459.776 307.754 459.958 307.971 460.186 308.093C460.415 308.215 460.674 308.233 460.913 308.143C461.152 308.053 461.355 307.862 461.481 307.607C461.607 307.351 461.647 307.05 461.595 306.762C461.542 306.474 461.401 306.218 461.197 306.046C460.993 305.873 460.742 305.796 460.492 305.829" fill="#455A64"/>
<path d="M511.311 305.623C511.097 305.771 510.936 306.008 510.862 306.288C510.787 306.567 510.804 306.869 510.909 307.135C511.013 307.401 511.198 307.611 511.428 307.726C511.657 307.841 511.915 307.851 512.15 307.755C512.386 307.659 512.583 307.464 512.703 307.207C512.822 306.95 512.856 306.65 512.798 306.365C512.74 306.08 512.594 305.831 512.388 305.666C512.182 305.501 511.932 305.431 511.685 305.471" fill="#455A64"/>
<path d="M471.92 310.817C471.705 310.966 471.545 311.203 471.47 311.482C471.396 311.762 471.413 312.064 471.517 312.329C471.622 312.595 471.807 312.806 472.036 312.92C472.266 313.035 472.523 313.045 472.759 312.949C472.995 312.853 473.191 312.658 473.311 312.401C473.431 312.144 473.465 311.844 473.407 311.56C473.349 311.275 473.203 311.026 472.997 310.86C472.791 310.695 472.54 310.625 472.293 310.665" fill="#455A64"/>
<path d="M463.355 287.708C463.138 287.856 462.976 288.094 462.9 288.375C462.824 288.656 462.839 288.96 462.944 289.228C463.048 289.496 463.233 289.71 463.463 289.826C463.694 289.943 463.953 289.956 464.191 289.861C464.429 289.766 464.628 289.571 464.75 289.313C464.872 289.055 464.908 288.754 464.851 288.466C464.795 288.179 464.649 287.927 464.443 287.759C464.237 287.59 463.985 287.518 463.736 287.556" fill="#455A64"/>
<path d="M446.271 243.58L447.733 245.69C451.714 251.456 452.978 260.191 452.696 267.79C452.661 268.903 452.4 269.991 451.935 270.963L449.948 275.103L452.308 317.264C452.309 320.675 453.291 323.986 455.095 326.66L488.593 376.375L473.823 390.92C473.823 390.92 430.587 332.229 429.392 329.44L421.208 255.283L446.271 243.58Z" fill="#263238"/>
<path d="M435.719 252.743C435.787 252.743 435.962 253.494 436.533 254.585C437.21 255.913 438.178 257.003 439.337 257.741C440.495 258.479 441.802 258.837 443.119 258.778C443.816 258.744 444.508 258.621 445.182 258.411C445.319 258.411 445.388 258.411 445.388 258.411C445.388 258.411 445.327 258.456 445.19 258.483C444.538 258.836 443.836 259.045 443.119 259.1C441.736 259.24 440.348 258.899 439.129 258.118C437.91 257.337 436.915 256.152 436.267 254.71C435.96 254.112 435.772 253.439 435.719 252.743Z" fill="#455A64"/>
<path d="M450.138 251.312C450.268 251.491 450.381 251.686 450.473 251.894C450.679 252.296 450.983 252.877 451.349 253.682C452.424 255.838 453.251 258.153 453.808 260.565C454.176 262.256 454.254 264.016 454.036 265.742C453.683 267.689 453.055 269.553 452.179 271.258C451.756 272.188 451.397 273.157 451.105 274.154C450.817 275.194 450.623 276.267 450.527 277.355C450.352 279.669 450.352 281.996 450.527 284.31C451.06 293.867 451.539 302.521 451.889 308.841C452.049 311.944 452.171 314.474 452.262 316.279C452.262 317.12 452.323 317.79 452.339 318.3C452.358 318.535 452.358 318.771 452.339 319.006C452.301 318.776 452.275 318.543 452.262 318.309C452.224 317.799 452.171 317.129 452.11 316.288C451.988 314.5 451.821 311.961 451.615 308.859C451.235 302.548 450.709 293.903 450.093 284.346C449.914 282.005 449.914 279.651 450.093 277.31C450.197 276.189 450.399 275.084 450.694 274.011C450.999 272.994 451.373 272.008 451.813 271.061C452.677 269.404 453.302 267.592 453.663 265.697C453.892 264.022 453.832 262.311 453.488 260.664C452.957 258.272 452.177 255.966 451.166 253.798L450.359 252.01C450.275 251.782 450.201 251.55 450.138 251.312Z" fill="#455A64"/>
<path d="M454.333 323.226C454.333 323.369 452.415 323.512 450.138 324.228C447.862 324.943 446.126 325.935 446.073 325.81C447.27 324.837 448.617 324.148 450.039 323.781C451.426 323.265 452.885 323.077 454.333 323.226Z" fill="#455A64"/>
<path d="M486.606 373.236C486.45 373.471 486.268 373.682 486.066 373.862C485.7 374.247 485.16 374.756 484.49 375.427C483.135 376.723 481.224 378.448 479.054 380.254C476.884 382.06 474.851 383.589 473.359 384.653C472.598 385.189 472.004 385.6 471.577 385.878C471.368 386.048 471.137 386.178 470.892 386.262C471.622 385.582 472.385 384.953 473.176 384.376C474.63 383.249 476.625 381.694 478.795 379.906C480.965 378.118 482.891 376.419 484.284 375.194C485.021 374.483 485.797 373.83 486.606 373.236Z" fill="#455A64"/>
<path d="M432.354 279.983C432.137 280.131 431.974 280.369 431.898 280.65C431.822 280.931 431.838 281.235 431.942 281.503C432.046 281.772 432.231 281.985 432.462 282.102C432.692 282.219 432.952 282.231 433.189 282.136C433.427 282.041 433.626 281.846 433.748 281.588C433.87 281.331 433.907 281.029 433.85 280.742C433.793 280.455 433.648 280.202 433.441 280.034C433.235 279.866 432.983 279.793 432.734 279.831" fill="#455A64"/>
<path d="M442.654 289.656C442.44 289.805 442.279 290.042 442.205 290.321C442.13 290.6 442.147 290.902 442.252 291.168C442.356 291.434 442.541 291.645 442.771 291.759C443 291.874 443.258 291.884 443.493 291.788C443.729 291.692 443.926 291.497 444.045 291.24C444.165 290.983 444.199 290.683 444.141 290.398C444.083 290.114 443.937 289.864 443.731 289.699C443.525 289.534 443.275 289.464 443.027 289.504" fill="#455A64"/>
<path d="M434.531 319.855C434.316 320.004 434.156 320.241 434.081 320.52C434.007 320.8 434.024 321.102 434.128 321.367C434.233 321.633 434.418 321.844 434.647 321.958C434.877 322.073 435.134 322.083 435.37 321.987C435.606 321.891 435.802 321.696 435.922 321.439C436.042 321.182 436.076 320.882 436.018 320.598C435.96 320.313 435.814 320.064 435.608 319.898C435.402 319.733 435.151 319.664 434.904 319.703" fill="#455A64"/>
<path d="M439.921 335.25C439.7 335.395 439.532 335.63 439.451 335.912C439.369 336.193 439.38 336.5 439.48 336.773C439.581 337.046 439.764 337.265 439.995 337.388C440.225 337.511 440.486 337.529 440.727 337.439C440.969 337.348 441.172 337.155 441.299 336.898C441.426 336.641 441.467 336.337 441.414 336.047C441.361 335.756 441.218 335.499 441.012 335.325C440.807 335.151 440.554 335.074 440.302 335.107" fill="#455A64"/>
<path d="M452.27 350.591C452.125 350.688 452.002 350.825 451.913 350.991C451.824 351.157 451.771 351.346 451.759 351.541C451.747 351.737 451.776 351.933 451.844 352.112C451.912 352.291 452.017 352.447 452.149 352.567C452.281 352.687 452.437 352.767 452.601 352.799C452.766 352.831 452.935 352.815 453.093 352.753C453.251 352.69 453.394 352.582 453.508 352.439C453.622 352.296 453.704 352.122 453.747 351.932C453.779 351.745 453.773 351.552 453.732 351.368C453.69 351.183 453.613 351.013 453.506 350.869C453.4 350.724 453.267 350.611 453.117 350.537C452.967 350.462 452.805 350.429 452.643 350.439" fill="#455A64"/>
<path d="M461.901 349.099C461.68 349.243 461.512 349.479 461.43 349.76C461.349 350.042 461.359 350.349 461.46 350.622C461.56 350.895 461.744 351.114 461.974 351.237C462.205 351.36 462.466 351.378 462.707 351.287C462.948 351.197 463.152 351.004 463.279 350.747C463.406 350.489 463.447 350.186 463.394 349.895C463.341 349.604 463.197 349.347 462.992 349.174C462.786 349 462.533 348.922 462.282 348.956" fill="#455A64"/>
<path d="M471.174 373.416C471.029 373.512 470.906 373.649 470.817 373.815C470.727 373.981 470.674 374.17 470.663 374.365C470.651 374.561 470.68 374.757 470.748 374.936C470.816 375.115 470.921 375.271 471.053 375.391C471.185 375.511 471.34 375.591 471.505 375.623C471.67 375.656 471.839 375.64 471.997 375.577C472.155 375.514 472.298 375.406 472.412 375.263C472.526 375.12 472.608 374.946 472.651 374.757C472.683 374.569 472.677 374.376 472.636 374.192C472.594 374.008 472.517 373.837 472.41 373.693C472.304 373.549 472.171 373.435 472.021 373.361C471.871 373.286 471.709 373.253 471.547 373.264" fill="#455A64"/>
<path d="M471.654 361.722C471.437 361.871 471.274 362.108 471.198 362.389C471.122 362.67 471.138 362.974 471.242 363.243C471.346 363.511 471.531 363.724 471.762 363.841C471.992 363.958 472.252 363.97 472.489 363.875C472.727 363.78 472.926 363.585 473.048 363.328C473.17 363.07 473.206 362.768 473.15 362.481C473.093 362.194 472.948 361.942 472.741 361.773C472.535 361.605 472.283 361.533 472.034 361.57" fill="#455A64"/>
<path d="M439.487 305.248C439.272 305.396 439.112 305.633 439.038 305.913C438.963 306.192 438.98 306.494 439.084 306.76C439.189 307.026 439.374 307.236 439.604 307.351C439.833 307.466 440.091 307.476 440.326 307.38C440.562 307.284 440.759 307.089 440.878 306.832C440.998 306.575 441.032 306.275 440.974 305.99C440.916 305.705 440.77 305.456 440.564 305.291C440.358 305.126 440.107 305.056 439.86 305.096" fill="#455A64"/>
<path d="M452.354 333.114C452.139 333.263 451.979 333.5 451.904 333.779C451.83 334.058 451.846 334.36 451.951 334.626C452.056 334.892 452.241 335.103 452.47 335.217C452.7 335.332 452.957 335.342 453.193 335.246C453.428 335.15 453.625 334.955 453.745 334.698C453.865 334.441 453.899 334.141 453.841 333.856C453.783 333.572 453.636 333.322 453.431 333.157C453.225 332.992 452.974 332.922 452.727 332.962" fill="#455A64"/>
<path d="M461.277 361.677C461.057 361.821 460.891 362.056 460.811 362.336C460.731 362.616 460.743 362.921 460.844 363.192C460.945 363.462 461.128 363.679 461.358 363.8C461.587 363.92 461.847 363.936 462.086 363.845C462.325 363.753 462.526 363.56 462.651 363.304C462.776 363.047 462.814 362.745 462.76 362.457C462.706 362.169 462.562 361.915 462.357 361.744C462.151 361.573 461.899 361.499 461.65 361.534" fill="#455A64"/>
<path d="M430.024 297.988C429.809 298.137 429.649 298.374 429.574 298.653C429.5 298.932 429.517 299.234 429.621 299.5C429.726 299.766 429.911 299.977 430.14 300.091C430.37 300.206 430.627 300.216 430.863 300.12C431.098 300.024 431.295 299.829 431.415 299.572C431.535 299.315 431.569 299.015 431.511 298.73C431.453 298.446 431.307 298.196 431.101 298.031C430.895 297.866 430.644 297.796 430.397 297.836" fill="#455A64"/>
<path d="M426.758 267.691C426.538 267.835 426.373 268.07 426.293 268.35C426.213 268.63 426.224 268.935 426.325 269.205C426.426 269.476 426.609 269.693 426.839 269.813C427.068 269.934 427.328 269.95 427.567 269.858C427.806 269.767 428.007 269.574 428.132 269.317C428.257 269.061 428.296 268.759 428.241 268.471C428.187 268.183 428.043 267.928 427.838 267.758C427.632 267.587 427.381 267.512 427.131 267.548" fill="#455A64"/>
<path d="M441.2 271.982C440.985 272.131 440.825 272.368 440.751 272.647C440.676 272.927 440.693 273.229 440.798 273.494C440.902 273.76 441.087 273.971 441.317 274.085C441.546 274.2 441.804 274.21 442.039 274.114C442.275 274.018 442.472 273.823 442.591 273.566C442.711 273.309 442.745 273.009 442.687 272.725C442.629 272.44 442.483 272.191 442.277 272.025C442.071 271.86 441.82 271.791 441.573 271.83" fill="#455A64"/>
<path d="M437.462 189.627C439.277 189.488 441.097 189.8 442.802 190.543C444.507 191.285 446.06 192.441 447.359 193.936C453.351 201.982 448.364 212.334 445.913 221.105L444.055 227.738C442.822 233.37 450.207 241.738 452.841 250.937L420.515 259.332L417.332 237.179L413.039 221.417L407.709 225.405L396.487 209.885L407.054 200.158C412.145 194.437 418.796 191.016 425.829 190.503" fill="#455A64"/>
<path d="M416.449 208.588C416.449 208.669 415.741 208.946 414.774 209.804C413.502 210.899 412.572 212.455 412.128 214.233C411.685 216.011 411.754 217.911 412.323 219.638C412.742 220.97 413.237 221.677 413.176 221.721C413.115 221.766 413.016 221.587 412.803 221.265C412.498 220.803 412.242 220.298 412.041 219.763C411.372 217.978 411.261 215.972 411.728 214.099C412.194 212.227 413.208 210.608 414.592 209.527C415 209.198 415.443 208.93 415.909 208.731C416.267 208.597 416.449 208.562 416.449 208.588Z" fill="#263238"/>
<path d="M424.824 190.422C424.882 191.675 425.14 192.903 425.585 194.043C426.097 195.252 426.862 196.289 427.808 197.056C428.981 197.96 430.369 198.399 431.769 198.308C433.169 198.218 434.508 197.604 435.589 196.555C436.456 195.673 437.119 194.547 437.515 193.283C437.852 192.091 437.999 190.837 437.949 189.582C437.98 189.665 438 189.752 438.01 189.841C438.058 190.091 438.089 190.345 438.102 190.601C438.144 191.546 438.035 192.492 437.782 193.39C437.402 194.737 436.727 195.942 435.825 196.886C434.69 198.016 433.271 198.678 431.785 198.772C430.298 198.866 428.827 198.385 427.595 197.405C426.605 196.587 425.817 195.477 425.311 194.186C424.974 193.325 424.778 192.397 424.733 191.45C424.719 191.197 424.719 190.944 424.733 190.691C424.794 190.512 424.824 190.422 424.824 190.422Z" fill="#263238"/>
<path d="M381.428 201.481C381.428 199.693 376.86 194.383 377.88 193.721C379.243 192.827 382.448 199.488 382.738 199.979C383.027 200.471 383.704 199.979 383.407 199.532C382.981 198.862 378.642 191.701 379.974 190.843C380.735 190.369 381.283 192.032 381.283 192.032C381.283 192.032 384.93 199.094 385.547 198.665C386.164 198.236 384.154 193.99 383.385 192.622C382.616 191.254 382.859 190.28 383.636 190.369C384.169 190.432 386.597 194.553 387.328 195.93C388.059 197.306 390.016 201.124 390.336 198.29C390.336 198.245 390.336 198.2 390.336 198.156C390.587 195.357 391.569 193.292 392.201 192.917C392.374 192.869 392.554 192.882 392.721 192.953C392.887 193.025 393.032 193.153 393.138 193.32C393.243 193.488 393.304 193.688 393.314 193.896C393.323 194.104 393.28 194.311 393.191 194.49L393.114 194.678C392.856 195.596 392.68 196.543 392.589 197.503C392.489 198.36 392.514 199.231 392.665 200.078C392.84 201.061 393.023 201.866 393.191 202.599C396.236 206.175 405.128 215.884 415.323 220.354C417.165 221.158 434.919 205.093 434.919 205.093L441.924 219.799C440.028 221.909 434.523 226.433 425.639 234.497C411.173 247.656 385.288 208.946 385.288 208.946L385.029 208.669C382.903 206.415 380.883 204.028 378.977 201.517C376.738 198.245 376.982 197.995 377.34 197.744C378.284 197.056 381.428 203.305 381.428 201.481Z" fill="#FFBE9D"/>
<path d="M418.231 217.483C418.904 216.768 419.616 216.105 420.363 215.499L425.562 210.85L430.709 206.103C431.394 205.405 432.119 204.763 432.879 204.181C432.732 204.414 432.561 204.624 432.369 204.806C432.026 205.182 431.524 205.7 430.892 206.353C429.62 207.649 427.846 209.375 425.806 211.216C423.766 213.058 421.908 214.649 420.522 215.767C419.83 216.33 419.266 216.768 418.87 217.063C418.675 217.238 418.46 217.379 418.231 217.483Z" fill="#263238"/>
<path d="M446.629 193.998C446.629 193.998 452.978 201.463 445.015 215.633C440.12 224.237 433.582 231.379 425.92 236.49L417.805 218.136C424.68 213.741 431.071 208.376 436.838 202.16L446.606 193.998H446.629Z" fill="#455A64"/>
<path d="M417.675 217.761C418.131 218.622 418.538 219.518 418.893 220.443C419.609 222.106 420.629 224.403 421.817 226.888C423.004 229.374 424.139 231.582 424.976 233.146C425.464 233.983 425.901 234.858 426.286 235.766C426.286 235.766 426.103 235.56 425.837 235.14C425.57 234.72 425.189 234.103 424.74 233.352C423.842 231.805 422.662 229.615 421.467 227.094C420.271 224.573 419.297 222.275 418.634 220.568C418.307 219.674 418.056 219.012 417.873 218.521C417.773 218.281 417.706 218.025 417.675 217.761Z" fill="#263238"/>
<path d="M439.343 224.931C439.404 225.038 436.678 227.613 433.252 230.715C431.223 232.643 429.111 234.448 426.925 236.123C428.871 234.078 430.904 232.151 433.016 230.348C436.442 227.255 439.289 224.832 439.343 224.931Z" fill="#263238"/>
<path d="M437.98 191.039V167.41C437.972 165.122 437.493 162.87 436.583 160.847C435.674 158.823 434.361 157.088 432.757 155.788L431.311 154.626C430.745 154.212 430.099 153.972 429.434 153.93C428.768 153.887 428.104 154.044 427.504 154.385L424.664 155.976C423.389 156.695 422.309 157.813 421.541 159.208C420.774 160.603 420.35 162.219 420.317 163.879C420.241 168.197 420.172 174.008 420.317 177.289C420.576 183.029 425.502 183.69 425.502 183.69C425.502 183.69 425.326 186.855 425.151 190.181C425.048 192.16 425.611 194.107 426.719 195.604C427.827 197.1 429.391 198.026 431.075 198.182C431.929 198.256 432.788 198.129 433.6 197.808C434.413 197.487 435.162 196.98 435.805 196.314C436.449 195.649 436.972 194.84 437.345 193.934C437.719 193.028 437.935 192.044 437.98 191.039Z" fill="#FFBE9D"/>
<path d="M421.329 167.983C421.346 168.165 421.42 168.333 421.536 168.455C421.652 168.577 421.802 168.644 421.958 168.644C422.113 168.644 422.263 168.577 422.379 168.455C422.495 168.333 422.569 168.165 422.586 167.983C422.595 167.88 422.586 167.775 422.559 167.676C422.532 167.576 422.487 167.485 422.428 167.407C422.369 167.329 422.296 167.267 422.215 167.225C422.134 167.182 422.046 167.16 421.958 167.16C421.869 167.16 421.781 167.182 421.7 167.225C421.619 167.267 421.546 167.329 421.487 167.407C421.428 167.485 421.383 167.576 421.356 167.676C421.329 167.775 421.32 167.88 421.329 167.983Z" fill="#263238"/>
<path d="M420.728 167.179C420.812 167.277 421.276 166.821 421.954 166.785C422.631 166.749 423.126 167.134 423.195 167.027C423.263 166.919 423.149 166.803 422.928 166.624C422.634 166.395 422.284 166.285 421.931 166.311C421.577 166.331 421.237 166.484 420.964 166.749C420.758 166.946 420.69 167.179 420.728 167.179Z" fill="#263238"/>
<path d="M428.577 168.073C428.574 168.22 428.609 168.365 428.676 168.49C428.744 168.614 428.842 168.712 428.957 168.771C429.072 168.83 429.199 168.847 429.323 168.821C429.446 168.794 429.561 168.725 429.65 168.622C429.74 168.519 429.802 168.387 429.828 168.242C429.853 168.098 429.842 167.948 429.794 167.811C429.747 167.674 429.666 167.557 429.562 167.475C429.458 167.393 429.335 167.349 429.209 167.349C429.044 167.349 428.886 167.424 428.768 167.56C428.65 167.695 428.581 167.879 428.577 168.073Z" fill="#263238"/>
<path d="M428.197 167.241C428.28 167.34 428.745 166.884 429.415 166.848C430.085 166.812 430.595 167.196 430.663 167.089C430.732 166.982 430.618 166.866 430.397 166.687C430.1 166.456 429.748 166.343 429.392 166.365C429.037 166.387 428.698 166.544 428.425 166.812C428.227 167.018 428.159 167.179 428.197 167.241Z" fill="#263238"/>
<path d="M425.471 183.7C427.796 183.607 430.049 182.736 431.965 181.188C431.965 181.188 430.443 185.389 425.57 185.103L425.471 183.7Z" fill="#EB996E"/>
<path d="M425.722 173.902C425.362 173.791 424.991 173.734 424.618 173.732C424.451 173.732 424.283 173.687 424.245 173.535C424.225 173.317 424.259 173.096 424.344 172.9C424.497 172.382 424.656 171.837 424.816 171.264C425.144 170.102 425.433 169.047 425.623 168.269C425.754 167.861 425.839 167.434 425.875 167C425.693 167.379 425.548 167.781 425.441 168.198C425.205 168.958 424.892 169.986 424.565 171.166L424.108 172.811C424.004 173.067 423.98 173.358 424.04 173.633C424.064 173.704 424.102 173.767 424.151 173.817C424.2 173.867 424.258 173.902 424.322 173.92C424.417 173.936 424.515 173.936 424.611 173.92C424.98 173.968 425.354 173.962 425.722 173.902Z" fill="#263238"/>
<path d="M433.678 153.938C436.807 155.852 438.779 157.926 440.972 158.31C443.184 158.541 445.406 158.625 447.626 158.56C449.849 158.65 452.156 159.106 453.945 160.661C455.734 162.217 456.815 165.131 455.978 167.527C457.474 167.525 458.949 167.949 460.275 168.763C461.601 169.578 462.739 170.758 463.591 172.203C464.414 173.68 464.823 175.422 464.76 177.186C464.697 178.949 464.166 180.646 463.241 182.037C462.312 183.315 461.025 184.2 460.196 185.55C459.64 186.444 459.297 187.446 458.757 188.322C457.985 189.531 456.893 190.404 455.653 190.804C454.412 191.204 453.093 191.107 451.905 190.53C449.248 189.162 447.603 185.47 444.733 184.96C443.21 184.683 441.688 185.416 440.104 185.282C437.691 185.059 435.726 182.725 434.836 180.079C433.945 177.433 433.96 174.5 433.96 171.649" fill="#263238"/>
<path d="M421.177 156.888C420.014 158.393 419.303 160.304 419.152 162.328C419.001 164.352 419.418 166.379 420.34 168.099C421.342 166.399 422.113 164.526 422.624 162.547C422.876 161.557 422.938 160.514 422.806 159.492C422.675 158.471 422.352 157.496 421.862 156.638" fill="#263238"/>
<path d="M421.208 156.844C421.147 160.473 423.416 163.817 426.286 165.194C426.69 165.417 427.134 165.522 427.58 165.498C427.806 165.481 428.022 165.388 428.203 165.229C428.384 165.07 428.522 164.853 428.6 164.604C428.631 164.48 428.638 164.35 428.622 164.223C428.606 164.095 428.566 163.973 428.506 163.866C428.446 163.758 428.367 163.666 428.274 163.598C428.181 163.529 428.077 163.485 427.968 163.468C429.028 164.522 430.179 165.442 431.402 166.213C431.668 166.432 431.969 166.585 432.287 166.663C432.605 166.742 432.933 166.743 433.252 166.669C433.869 166.427 434.196 165.31 433.648 164.881C434.546 166.079 435.171 169.279 436.328 170.164C436.686 170.442 437.493 168.573 437.896 168.376C438.3 168.18 438.536 167.482 438.612 166.83C438.878 164.559 439.129 162.172 438.406 160.035C437.812 158.377 436.92 156.888 435.792 155.671C434.663 154.453 433.324 153.536 431.866 152.982C429.978 152.374 427.61 152.66 425.677 153.044C424.685 153.334 423.758 153.867 422.955 154.608C422.152 155.349 421.491 156.282 421.017 157.344" fill="#263238"/>
<path d="M436.724 168.216C436.958 167.952 437.254 167.775 437.574 167.709C437.893 167.642 438.223 167.688 438.52 167.84C438.817 168.01 439.074 168.261 439.27 168.572C439.467 168.884 439.596 169.246 439.647 169.628C439.741 170.39 439.589 171.165 439.221 171.801C439.075 172.118 438.853 172.379 438.582 172.549C438.312 172.719 438.004 172.792 437.698 172.757" fill="#FFBE9D"/>
<path d="M452.491 170.21C452.491 170.21 453.009 170.04 453.869 169.548C455.092 168.892 456.143 167.864 456.914 166.571C457.476 165.623 457.808 164.513 457.875 163.361C457.942 162.208 457.742 161.056 457.295 160.027C456.756 158.822 455.834 157.916 454.729 157.506C453.531 157.084 452.262 157.019 451.037 157.318C448.501 157.854 446.179 159.285 443.804 159.204C441.769 159.029 439.778 158.423 437.927 157.416C436.665 156.814 435.43 156.137 434.226 155.387C433.8 155.128 433.465 154.904 433.252 154.752C433.039 154.6 432.925 154.52 432.932 154.502C433.058 154.537 433.179 154.594 433.29 154.672L434.295 155.226C435.163 155.709 436.427 156.379 438.033 157.112C439.859 158.062 441.812 158.628 443.804 158.784C446.088 158.847 448.372 157.434 450.968 156.871C452.26 156.555 453.598 156.629 454.859 157.086C456.05 157.538 457.04 158.524 457.615 159.83C458.084 160.926 458.288 162.152 458.206 163.375C458.124 164.598 457.759 165.771 457.15 166.768C456.332 168.087 455.217 169.111 453.93 169.727C453.588 169.896 453.237 170.036 452.879 170.147C452.753 170.19 452.622 170.211 452.491 170.21Z" fill="#263238"/>
<path d="M437.607 171.353C437.607 171.282 437.812 171.237 438.033 171.005C438.173 170.865 438.278 170.682 438.335 170.477C438.393 170.272 438.402 170.053 438.361 169.842C438.287 169.645 438.17 169.475 438.022 169.349C437.873 169.223 437.698 169.146 437.515 169.127C437.219 169.127 437.028 169.199 436.998 169.127C436.967 169.056 437.12 168.832 437.515 168.779C437.777 168.737 438.043 168.804 438.266 168.969C438.49 169.134 438.657 169.386 438.739 169.681C438.82 169.976 438.811 170.295 438.713 170.582C438.614 170.87 438.433 171.108 438.201 171.255C437.85 171.496 437.599 171.407 437.607 171.353Z" fill="#EB996E"/>
<path d="M428.433 174.661C428.302 174.508 428.137 174.4 427.956 174.351C427.776 174.302 427.588 174.314 427.413 174.384C427.088 174.466 426.797 174.678 426.59 174.983C426.49 175.137 426.429 175.322 426.416 175.515C426.402 175.709 426.436 175.903 426.514 176.074C426.63 176.245 426.781 176.378 426.953 176.461C427.125 176.544 427.312 176.574 427.496 176.548C427.701 176.544 427.902 176.49 428.087 176.388C428.272 176.287 428.437 176.14 428.57 175.957C428.698 175.771 428.767 175.54 428.767 175.3C428.767 175.061 428.698 174.829 428.57 174.643" fill="#EB996E"/>
<path d="M428.768 174.018C428.874 174.018 428.6 174.983 427.786 175.609C427.561 175.826 427.295 175.979 427.011 176.055C426.727 176.131 426.432 176.129 426.149 176.047C426.149 175.913 426.849 175.779 427.565 175.216C428.28 174.652 428.669 173.955 428.768 174.018Z" fill="#263238"/>
<path d="M453.541 154.501C453.541 154.501 453.237 154.367 452.674 154.305C451.878 154.231 451.08 154.381 450.344 154.743C449.253 155.321 448.206 156.009 447.215 156.799C445.926 157.737 444.451 158.264 442.936 158.328C441.432 158.372 439.934 158.084 438.52 157.478C437.378 156.999 436.275 156.4 435.224 155.69C434.325 155.082 433.625 154.555 433.145 154.18C432.885 154.007 432.645 153.797 432.43 153.554C432.697 153.681 432.952 153.839 433.191 154.028C433.694 154.349 434.417 154.841 435.323 155.404C437.112 156.495 439.769 158.006 442.883 157.881C444.336 157.826 445.753 157.33 446.994 156.441C448.011 155.663 449.086 154.995 450.207 154.448C450.988 154.099 451.833 153.994 452.658 154.144C452.882 154.188 453.099 154.266 453.305 154.376C453.481 154.439 453.549 154.483 453.541 154.501Z" fill="#263238"/>
<path d="M223.931 109.434C223.931 109.434 235.351 101.031 237.993 103.57C239.766 105.427 241.178 107.711 242.134 110.266L229.854 115.996L223.931 109.434Z" fill="#FFBE9D"/>
<path d="M176.074 117.319L201.799 121.092L225.766 105.644L231.681 115.701L201.67 138.4L171.186 133.912L176.074 117.319Z" fill="#FF725E"/>
<g opacity="0.3">
<path d="M176.074 117.319L201.799 121.092L225.766 105.644L231.681 115.701L201.67 138.4L171.186 133.912L176.074 117.319Z" fill="black"/>
</g>
<path d="M201.312 155.556C201.312 155.556 196.744 78.7433 256.889 70L266.786 147.778L201.312 155.556Z" fill="#263238"/>
<path d="M69.1215 297.497L75.0142 294.502L70.3167 281.503L61.668 285.767L61.9116 286.599C63.0384 290.264 67.8653 305.176 69.3499 307.268C70.9867 309.601 69.1215 297.497 69.1215 297.497Z" fill="#FF725E"/>
<g opacity="0.5">
<path d="M63.4419 290.433C64.3089 289.779 64.9362 288.768 65.2006 287.599C65.4769 286.45 65.3736 285.221 64.9113 284.157L61.8127 285.704L63.4419 290.433Z" fill="white"/>
</g>
<g opacity="0.4">
<path d="M69.8676 303.494C69.8676 303.494 70.3168 307.839 69.6011 307.625C68.8854 307.41 63.5104 292.561 61.6528 285.766L61.904 285.659L67.9947 303.047C67.9947 303.047 69.5706 302.744 69.8676 303.494Z" fill="white"/>
</g>
<path d="M61.8431 285.454C61.8541 285.534 61.8719 285.611 61.8964 285.687C61.9573 285.883 62.0258 286.107 62.0943 286.348C62.3075 287.001 62.5588 287.805 62.8557 288.753C63.518 290.782 64.4545 293.572 65.5508 296.62C66.6471 299.669 67.6978 302.404 68.4743 304.371L69.4108 306.696L69.6772 307.321C69.7381 307.464 69.7762 307.536 69.7762 307.536C69.7579 307.458 69.7323 307.383 69.7001 307.312L69.4641 306.669L68.5733 304.326C67.812 302.342 66.7842 299.606 65.6878 296.558C64.5915 293.509 63.6322 290.729 62.9547 288.708L62.14 286.321C62.0639 286.089 61.9878 285.874 61.9192 285.678L61.8431 285.454Z" fill="#263238"/>
<path d="M67.8576 303.128C68.2295 303.079 68.6049 303.079 68.9768 303.128C69.3423 303.223 69.6974 303.367 70.035 303.557C69.7499 303.238 69.3883 303.029 68.999 302.959C68.6096 302.889 68.2113 302.96 67.8576 303.164V303.128Z" fill="#263238"/>
<path d="M68.1317 298.47C68.1317 298.515 68.3753 298.604 68.7027 298.667C69.0301 298.73 69.2889 298.747 69.2966 298.667C69.1218 298.55 68.9263 298.483 68.7256 298.47C68.5304 298.415 68.3269 298.415 68.1317 298.47Z" fill="#263238"/>
<path d="M68.2231 297.183C68.2231 297.183 68.3982 297.371 68.6494 297.505C68.9007 297.639 69.1215 297.728 69.1367 297.684C69.1519 297.639 68.9616 297.496 68.7103 297.353C68.4591 297.21 68.2383 297.138 68.2231 297.183Z" fill="#263238"/>
<path d="M69.0301 295.994C69.0388 296.244 69.0961 296.489 69.1976 296.709C69.2626 296.948 69.366 297.169 69.5021 297.362C69.4934 297.111 69.4361 296.867 69.3346 296.647C69.2052 296.271 69.0682 295.976 69.0301 295.994Z" fill="#263238"/>
<path d="M69.6848 295.396C69.6328 295.696 69.6621 296.009 69.7686 296.29C69.8246 296.574 69.9551 296.83 70.1416 297.023C70.0791 296.751 70.0003 296.485 69.9056 296.227C69.8527 295.943 69.7788 295.665 69.6848 295.396Z" fill="#263238"/>
<path d="M69.2813 298.426C69.3422 298.726 69.4479 299.01 69.5935 299.266C69.7314 299.554 69.8947 299.824 70.0807 300.071C70.1883 300.224 70.3081 300.365 70.4386 300.491C70.5233 300.567 70.6295 300.602 70.7355 300.589C70.7936 300.576 70.8473 300.544 70.8904 300.497C70.9335 300.449 70.9643 300.388 70.9791 300.321C70.9887 300.068 70.9493 299.815 70.8638 299.582C70.7784 299.349 70.6492 299.142 70.4859 298.976C70.3225 298.81 70.1293 298.69 69.9207 298.624C69.7121 298.558 69.4935 298.548 69.2813 298.596C69.2118 298.603 69.1442 298.627 69.0834 298.667C69.3392 298.644 69.5966 298.671 69.8447 298.748C70.0986 298.843 70.3234 299.024 70.4919 299.266C70.5987 299.405 70.6808 299.567 70.7331 299.744C70.7854 299.921 70.8069 300.108 70.7964 300.294C70.7964 300.464 70.6061 300.482 70.4842 300.366C70.3574 300.254 70.2424 300.125 70.1416 299.982C69.9598 299.742 69.7919 299.488 69.6392 299.222C69.3879 298.739 69.2813 298.417 69.2813 298.426Z" fill="#263238"/>
<path d="M69.2813 298.668C69.4685 298.689 69.6562 298.635 69.8143 298.516C69.9894 298.393 70.1379 298.225 70.2482 298.024C70.3332 297.9 70.3886 297.752 70.4087 297.595C70.4287 297.438 70.4128 297.277 70.3624 297.13C70.315 297.053 70.2441 297.001 70.1646 296.984C70.0851 296.968 70.0032 296.988 69.9361 297.04C69.8333 297.12 69.7432 297.22 69.6696 297.335C69.5549 297.529 69.4579 297.735 69.3803 297.952C69.3023 298.154 69.2683 298.375 69.2813 298.596C69.2813 298.596 69.3499 298.364 69.4945 298.024C69.5762 297.824 69.6758 297.636 69.7914 297.461C69.9056 297.273 70.1416 297.058 70.2558 297.255C70.2846 297.373 70.2899 297.497 70.2714 297.618C70.253 297.739 70.2112 297.853 70.1493 297.952C70.055 298.14 69.9247 298.299 69.7686 298.417C69.6121 298.516 69.4492 298.6 69.2813 298.668Z" fill="#263238"/>
<path d="M64.9646 284.211C64.9646 284.211 65.1321 284.569 65.2843 285.185C65.4911 285.988 65.4993 286.842 65.3078 287.65C65.1164 288.457 64.7333 289.184 64.2032 289.745C63.9771 289.974 63.7408 290.189 63.4952 290.388C63.577 290.367 63.6546 290.328 63.7236 290.272C63.9179 290.152 64.0993 290.005 64.2642 289.834C64.8427 289.282 65.2649 288.537 65.4747 287.698C65.6708 286.86 65.6496 285.973 65.4138 285.15C65.3445 284.903 65.2526 284.666 65.1397 284.443C65.0898 284.358 65.0309 284.28 64.9646 284.211Z" fill="#263238"/>
<path d="M70.0427 283.272C69.2647 283.558 68.502 283.899 67.7587 284.292C66.979 284.631 66.2164 285.022 65.4747 285.463C66.2527 285.177 67.0154 284.837 67.7587 284.444C68.5399 284.109 69.3028 283.718 70.0427 283.272Z" fill="#263238"/>
<path d="M65.1092 291.533C65.2142 292.218 65.3906 292.884 65.6345 293.518C65.8373 294.168 66.1111 294.784 66.4492 295.351C66.4492 295.351 66.137 294.501 65.7716 293.455C65.4061 292.409 65.1549 291.524 65.1092 291.533Z" fill="#263238"/>
<path d="M64.1956 288.985C64.1956 288.985 64.0662 289.128 63.9292 289.298C63.7921 289.468 63.6703 289.593 63.6855 289.638C63.7008 289.683 63.8835 289.638 64.0434 289.414C64.2032 289.191 64.2337 289.003 64.1956 288.985Z" fill="#263238"/>
<path d="M64.8656 287.52C64.8656 287.52 64.7438 287.645 64.6753 287.832C64.6067 288.02 64.5839 288.199 64.622 288.217C64.66 288.235 64.7438 288.092 64.8123 287.904C64.8808 287.716 64.9037 287.537 64.8656 287.52Z" fill="#263238"/>
<path d="M64.8352 285.91C64.8352 285.91 64.8352 286.116 64.8808 286.33C64.9265 286.545 64.8808 286.732 64.8808 286.75C64.8808 286.768 65.0331 286.589 65.0179 286.321C65.0027 286.053 64.8656 285.883 64.8352 285.91Z" fill="#263238"/>
<path d="M64.7133 284.828C64.6676 284.828 64.6372 284.926 64.6448 285.052C64.6524 285.177 64.6448 285.284 64.7209 285.284C64.7971 285.284 64.7895 285.177 64.7895 285.052C64.7895 284.926 64.7133 284.828 64.7133 284.828Z" fill="#263238"/>
<path d="M50.7505 241.702L57.1685 241.38L56.7422 227.264L47.3473 227.612V228.506C47.2788 232.404 47.2407 248.353 47.9868 250.937C48.8091 253.789 50.7505 241.702 50.7505 241.702Z" fill="#FF725E"/>
<g opacity="0.6">
<path d="M47.5986 232.726C48.6085 232.475 49.5035 231.793 50.111 230.813C50.7128 229.854 50.9847 228.663 50.8723 227.479L47.5148 227.622L47.5986 232.726Z" fill="white"/>
</g>
<g opacity="0.6">
<path d="M49.6237 247.637C49.6237 247.637 48.7177 251.884 48.101 251.383C47.4844 250.883 47.0123 234.764 47.3397 227.639H47.6138L48.0325 246.413C48.0325 246.413 49.5704 246.788 49.6237 247.637Z" fill="white"/>
</g>
<path d="M47.6214 227.397C47.6153 227.478 47.6153 227.559 47.6214 227.639C47.6214 227.853 47.6214 228.086 47.6214 228.345C47.6214 229.042 47.6214 229.901 47.6214 230.911C47.6214 233.083 47.6214 236.078 47.7432 239.386C47.865 242.694 47.9792 245.689 48.1087 247.861C48.1772 248.871 48.2305 249.721 48.2762 250.418C48.2762 250.677 48.2762 250.91 48.3295 251.115C48.3213 251.195 48.3213 251.276 48.3295 251.357C48.3396 251.277 48.3396 251.195 48.3295 251.115C48.3295 250.901 48.3295 250.677 48.3295 250.418C48.3295 249.721 48.2609 248.862 48.2076 247.852C48.1087 245.68 47.9869 242.694 47.8879 239.386C47.7889 236.078 47.7432 233.128 47.7204 230.911C47.7204 229.901 47.7204 229.042 47.7204 228.345C47.7204 228.086 47.7204 227.853 47.7204 227.639C47.6942 227.555 47.6611 227.474 47.6214 227.397Z" fill="#263238"/>
<path d="M47.8498 246.431C48.2159 246.528 48.5711 246.675 48.9081 246.869C49.2218 247.112 49.5127 247.394 49.776 247.709C49.6275 247.285 49.3584 246.934 49.0146 246.717C48.6707 246.453 48.2549 246.351 47.8498 246.431Z" fill="#263238"/>
<path d="M49.5323 242.194C49.5323 242.194 49.7227 242.426 50.0044 242.623C50.168 242.76 50.355 242.855 50.5525 242.9C50.5525 242.855 50.3622 242.667 50.0805 242.471C49.7988 242.274 49.5476 242.149 49.5323 242.194Z" fill="#263238"/>
<path d="M50.012 241.031C50.012 241.031 50.111 241.281 50.3089 241.514C50.5069 241.746 50.682 241.916 50.7124 241.88C50.7429 241.845 50.6058 241.63 50.4155 241.398C50.2252 241.165 50.0424 240.995 50.012 241.031Z" fill="#263238"/>
<path d="M51.1235 240.263C51.0564 240.502 51.0356 240.755 51.0626 241.005C51.046 241.254 51.0772 241.505 51.154 241.738C51.2211 241.499 51.2419 241.245 51.2149 240.996C51.2273 240.747 51.1962 240.497 51.1235 240.263Z" fill="#263238"/>
<path d="M51.9153 239.977C51.7882 240.227 51.7273 240.517 51.7402 240.808C51.703 241.099 51.7456 241.397 51.862 241.657C51.8828 241.378 51.8828 241.097 51.862 240.817C51.9063 240.54 51.9242 240.258 51.9153 239.977Z" fill="#263238"/>
<path d="M50.5906 242.632C50.5502 242.928 50.5502 243.23 50.5906 243.526C50.6368 243.852 50.7082 244.172 50.8038 244.482C50.8557 244.674 50.9273 244.857 51.0169 245.028C51.0428 245.081 51.0778 245.128 51.1197 245.165C51.1616 245.202 51.2096 245.228 51.2606 245.242C51.3176 245.254 51.3763 245.247 51.4301 245.222C51.4839 245.196 51.5306 245.154 51.5651 245.099C51.6988 244.746 51.7248 244.35 51.6388 243.977C51.5529 243.604 51.3601 243.278 51.0931 243.052C50.9367 242.919 50.7574 242.827 50.5678 242.784C50.4979 242.762 50.4245 242.762 50.3546 242.784C50.5952 242.865 50.8219 242.996 51.0246 243.168C51.2359 243.365 51.3945 243.629 51.4814 243.928C51.6028 244.275 51.6028 244.663 51.4814 245.01C51.39 245.162 51.2453 245.108 51.1616 244.956C51.0803 244.795 51.014 244.624 50.9637 244.447C50.8633 244.157 50.7843 243.858 50.7276 243.553C50.6287 242.972 50.6134 242.632 50.5906 242.632Z" fill="#263238"/>
<path d="M50.5602 242.864C50.7247 242.971 50.9173 243.003 51.1007 242.954C51.3016 242.912 51.4917 242.818 51.6565 242.676C51.7701 242.597 51.8643 242.485 51.9297 242.35C51.9951 242.215 52.0295 242.063 52.0295 241.908C52.0096 241.816 51.9606 241.737 51.8925 241.688C51.8245 241.638 51.7427 241.62 51.6641 241.639C51.5409 241.667 51.4241 241.725 51.3215 241.809C51.1564 241.935 51.0054 242.086 50.8723 242.256C50.7398 242.408 50.6361 242.591 50.5678 242.793C50.5678 242.793 50.7048 242.605 50.9408 242.346C51.0798 242.192 51.233 242.057 51.3976 241.943C51.5575 241.809 51.8468 241.72 51.8849 241.943C51.9229 242.167 51.725 242.408 51.5727 242.551C51.4295 242.69 51.2596 242.785 51.0779 242.828C50.9067 242.861 50.7333 242.873 50.5602 242.864Z" fill="#263238"/>
<path d="M50.918 227.55C50.918 227.55 50.9637 227.961 50.918 228.596C50.8677 229.437 50.6159 230.244 50.1915 230.924C49.7671 231.605 49.1876 232.13 48.5198 232.44C48.2403 232.559 47.9556 232.66 47.6671 232.744C47.7479 232.758 47.8299 232.758 47.9107 232.744C48.129 232.713 48.3436 232.653 48.5502 232.565C49.2543 232.277 49.8667 231.743 50.306 231.035C50.7453 230.328 50.9907 229.48 51.0093 228.605C51.0183 228.344 51.003 228.083 50.9637 227.827C50.9628 227.732 50.9473 227.638 50.918 227.55Z" fill="#263238"/>
<path d="M55.9656 228.81C55.1415 228.756 54.3154 228.756 53.4913 228.81C52.6671 228.8 51.8432 228.85 51.0246 228.962C51.8487 229.017 52.6748 229.017 53.4989 228.962C54.323 228.973 55.1469 228.922 55.9656 228.81Z" fill="#263238"/>
<path d="M48.8243 234.451C48.7117 235.134 48.6733 235.831 48.7101 236.525C48.7007 237.218 48.7698 237.91 48.9157 238.581C48.9157 238.581 48.9157 237.687 48.8548 236.516C48.7939 235.345 48.87 234.46 48.8243 234.451Z" fill="#263238"/>
<path d="M48.7253 231.688C48.7253 231.688 48.5578 231.769 48.3827 231.867C48.2076 231.966 48.0477 232.028 48.0477 232.082C48.0477 232.135 48.2457 232.144 48.4436 232.019C48.6416 231.894 48.7786 231.715 48.7253 231.688Z" fill="#263238"/>
<path d="M49.8217 230.599C49.8217 230.599 49.6694 230.661 49.5476 230.813C49.4258 230.965 49.3496 231.117 49.3801 231.144C49.4105 231.171 49.5323 231.081 49.6542 230.929C49.776 230.777 49.8521 230.652 49.8217 230.599Z" fill="#263238"/>
<path d="M50.248 229.087C50.2099 229.087 50.248 229.284 50.1643 229.498C50.0805 229.713 50.012 229.856 50.0424 229.892C50.0729 229.927 50.2328 229.802 50.3013 229.543C50.3698 229.284 50.3165 229.069 50.248 229.087Z" fill="#263238"/>
<path d="M50.484 228.015C50.484 228.015 50.3927 228.086 50.3546 228.202C50.3165 228.319 50.3546 228.426 50.3546 228.444C50.3546 228.462 50.4536 228.372 50.484 228.256C50.5145 228.14 50.5221 228.033 50.484 228.015Z" fill="#263238"/>
<path d="M240.947 129.138C243.462 128.023 245.922 126.746 248.316 125.312C251.217 123.372 251.08 123.059 250.836 122.693C250.189 121.709 245.621 125.875 246.177 124.302C246.733 122.728 252.268 119.975 251.506 118.982C250.57 117.686 245.857 122.156 245.416 122.496C244.974 122.836 244.571 122.12 244.967 121.834C245.53 121.423 251.4 116.944 250.494 115.657C249.991 114.95 249.009 116.166 249.009 116.166C249.009 116.166 243.771 120.842 243.36 120.216C242.949 119.59 245.941 116.721 247.007 115.836C248.073 114.95 248.149 114.048 247.449 113.77C246.961 113.609 243.642 116.22 242.606 117.123C241.571 118.026 238.747 120.556 239.302 117.963C239.858 115.371 239.47 113.127 239.013 112.599C238.556 112.072 237.787 112.671 237.917 113.493C237.972 114.39 237.926 115.292 237.78 116.175C237.685 116.894 237.49 117.588 237.201 118.231C236.942 118.786 236.706 119.268 236.485 119.698L234.201 124.284L237.117 130.81L240.947 129.138Z" fill="#FFBE9D"/>
<path d="M147.151 183.001L149.579 177.637L136.469 164.826C136.469 164.826 123.526 178.236 122.613 181.043C121.699 183.85 104.706 224.492 104.706 224.492L52.3569 226.181L51.7707 249.935C51.7707 249.935 102.437 248.442 110.439 247.915C120.923 247.208 125.993 229.918 125.993 229.918L126.968 227.755C126.267 234.415 125.597 240.432 125.072 244.035C124.932 245.009 124.606 245.934 124.116 246.738C123.627 247.542 122.988 248.204 122.247 248.674L65.1473 280.563L73.7504 304.067C73.7504 304.067 140.397 265.562 143.093 257.275C146.427 247.012 162.179 186.202 162.179 186.202L147.151 183.001Z" fill="#263238"/>
<path d="M124.615 245.706C124.654 245.485 124.712 245.269 124.79 245.063L125.361 243.275C125.491 239.411 125.796 235.559 126.275 231.733C126.846 226.673 127.797 220.639 128.688 214.139C129.29 209.777 129.807 205.61 130.013 201.802C130.218 197.994 129.883 194.552 130.013 191.637C130.066 190.329 130.196 189.027 130.401 187.739C130.572 186.772 130.798 185.819 131.079 184.888C131.251 184.296 131.451 183.717 131.68 183.153C131.749 182.952 131.836 182.761 131.939 182.581C131.889 182.791 131.828 182.997 131.756 183.198C131.619 183.591 131.429 184.172 131.223 184.941C130.973 185.876 130.772 186.829 130.622 187.793C130.439 189.07 130.33 190.361 130.295 191.655C130.203 194.534 130.515 197.976 130.378 201.829C130.241 205.682 129.678 209.875 129.084 214.211C128.17 220.728 127.211 226.727 126.602 231.787C125.993 236.847 125.65 240.852 125.513 243.284L124.874 245.072C124.8 245.29 124.714 245.502 124.615 245.706Z" fill="#455A64"/>
<path d="M157.961 196.179C157.884 196.421 157.768 196.642 157.619 196.832C157.252 197.388 156.806 197.865 156.302 198.244C155.542 198.823 154.685 199.204 153.789 199.362C152.698 199.569 151.58 199.424 150.554 198.941C149.541 198.423 148.67 197.588 148.034 196.528C147.51 195.676 147.147 194.704 146.968 193.676C146.837 192.989 146.812 192.281 146.892 191.584C146.905 191.328 146.957 191.077 147.044 190.842C147.013 191.769 147.079 192.697 147.242 193.604C147.446 194.574 147.813 195.486 148.323 196.286C148.954 197.249 149.789 198.001 150.744 198.468C151.709 198.923 152.76 199.068 153.789 198.888C154.631 198.757 155.441 198.429 156.172 197.922C156.828 197.431 157.429 196.845 157.961 196.179Z" fill="#455A64"/>
<path d="M128.848 252.671C128.155 251.697 127.527 250.663 126.968 249.578C126.299 248.582 125.7 247.524 125.178 246.413C126.014 247.236 126.729 248.215 127.295 249.31C127.972 250.318 128.497 251.455 128.848 252.671Z" fill="#455A64"/>
<path d="M131.802 250.445C131.726 250.543 130.378 249.264 128.604 247.879C126.831 246.493 125.308 245.528 125.354 245.402C127.801 246.486 130.007 248.21 131.802 250.445Z" fill="#455A64"/>
<path d="M79.1787 300.446C79.0797 300.5 76.8947 295.493 74.2528 289.271C71.611 283.049 69.5859 277.944 69.6848 277.881C69.7838 277.819 71.9688 282.825 74.6107 289.065C77.2525 295.306 79.3081 300.383 79.1787 300.446Z" fill="#455A64"/>
<path d="M58.4476 249.73C58.3962 249.436 58.3782 249.135 58.3943 248.836V246.261C58.3943 244.088 58.3943 241.094 58.3181 237.786C58.242 234.478 58.2192 231.474 58.2192 229.302C58.2192 228.211 58.2192 227.335 58.2192 226.727C58.2093 226.409 58.2298 226.092 58.2801 225.779C58.3474 226.086 58.3782 226.402 58.3714 226.718L58.4856 229.293C58.5618 231.456 58.6531 234.46 58.6988 237.777C58.7445 241.094 58.6988 244.097 58.6988 246.27C58.6988 247.352 58.6227 248.228 58.5846 248.836C58.566 249.138 58.52 249.438 58.4476 249.73Z" fill="#455A64"/>
<path d="M171.353 92.7883C171.566 91.7597 171.514 90.6804 171.205 89.6862C170.896 88.6919 170.344 87.8272 169.617 87.2008C168.874 86.6058 167.998 86.2817 167.099 86.2689C166.2 86.2562 165.317 86.5555 164.562 87.1293C163.826 87.7387 163.264 88.5946 162.949 89.585C162.634 90.5754 162.581 91.6544 162.796 92.681C163.044 93.6969 163.55 94.5998 164.247 95.2691C164.943 95.9384 165.797 96.3423 166.694 96.4269C168.217 96.5341 169.656 95.6938 171.003 94.8713" fill="#263238"/>
<path d="M179.591 87.6113L166.29 116.863L176.728 124.122L180.253 117.194C180.253 117.194 183.656 120.439 186.504 116.908C188.323 114.646 197.406 94.0839 197.406 94.0839L179.591 87.6113Z" fill="#FFBE9D"/>
<path d="M198.518 98.4743C196.995 99.7796 192.13 100.843 192.13 100.843L188.377 104.759C188.597 102.542 185.331 100.897 184.113 103.713C182.895 106.529 184.943 107.781 184.943 107.781C182.583 109.488 180.84 110.964 177.977 112.197C174.878 113.529 173.668 113.091 171.536 111.831L169.199 110.382C169.199 110.382 166.542 102.721 173.051 90.9737C179.56 79.2265 187.235 85.4845 190.859 87.2278C191.544 87.5586 203.565 94.1295 198.518 98.4743Z" fill="#263238"/>
<path d="M188.377 104.759C188.377 104.759 187.311 108.773 185.689 108.245C185.145 107.995 184.653 107.608 184.25 107.11L181.251 110.042C181.251 110.042 177.878 114.888 180.253 117.194C182.446 119.322 185.179 120.52 187.494 116.095L189.016 112.832C189.016 112.832 186.831 112.134 187.113 110.972C187.395 109.81 190.508 102.497 190.508 102.497L188.377 104.759Z" fill="#263238"/>
<path d="M193.036 95.2104C193.036 95.2104 193.234 95.3803 193.607 95.6306C194.13 95.9859 194.724 96.1711 195.328 96.167C195.765 96.1601 196.195 96.0337 196.583 95.7979C196.972 95.562 197.308 95.2231 197.566 94.8081C197.873 94.3331 198.048 93.7589 198.068 93.1632C198.089 92.5158 197.954 91.8748 197.68 91.3126C197.121 90.208 196.255 89.3623 195.229 88.9167C194.377 88.5377 193.501 88.2388 192.61 88.0227C191.766 87.8587 190.949 87.542 190.189 87.084C190.417 87.1121 190.641 87.1691 190.859 87.2538C191.285 87.379 191.902 87.531 192.671 87.7008C193.591 87.8962 194.494 88.1956 195.366 88.5948C196.482 89.0536 197.424 89.9629 198.023 91.1606C198.331 91.7964 198.482 92.5213 198.457 93.2526C198.427 93.9391 198.217 94.598 197.855 95.1389C197.563 95.5978 197.18 95.9674 196.74 96.2163C196.3 96.4653 195.816 96.5863 195.328 96.5693C194.679 96.5494 194.05 96.3002 193.523 95.8541C193.158 95.4786 193.021 95.2283 193.036 95.2104Z" fill="#263238"/>
<path d="M170.6 95.8903C170.493 95.8456 170.668 94.9963 170.98 94.004C171.142 93.4529 171.351 92.9227 171.605 92.4216V92.5378C171.605 92.5378 171.605 92.5378 171.551 92.4931C171.498 92.4484 171.551 92.2964 171.719 92.3411H171.764V92.4484C171.673 93.0198 171.536 93.5797 171.353 94.1202C171.041 95.1662 170.699 95.935 170.6 95.8903Z" fill="#FF725E"/>
<path d="M187.212 104.509C187.174 104.562 186.976 104.428 186.648 104.366C186.448 104.32 186.241 104.333 186.046 104.403C185.851 104.474 185.674 104.599 185.529 104.768C185.392 104.935 185.303 105.149 185.277 105.379C185.251 105.609 185.289 105.843 185.385 106.047C185.537 106.377 185.75 106.485 185.727 106.547C185.704 106.61 185.43 106.61 185.156 106.234C185 106.006 184.912 105.723 184.905 105.43C184.905 105.066 185.025 104.717 185.24 104.455C185.426 104.223 185.666 104.061 185.93 103.989C186.195 103.918 186.471 103.94 186.725 104.053C187.098 104.223 187.242 104.464 187.212 104.509Z" fill="#EB996E"/>
<path d="M171.224 94.3168C170.78 94.5537 170.295 94.664 169.808 94.6386C168.629 94.6877 167.457 94.3972 166.396 93.7926C165.334 93.188 164.414 92.2876 163.717 91.1699C163.397 90.7386 163.17 90.2236 163.055 89.668C163.108 89.668 163.375 90.1954 163.938 90.9643C164.659 91.9727 165.554 92.7916 166.562 93.3676C167.571 93.9437 168.672 94.264 169.793 94.3078C170.676 94.3436 171.216 94.2452 171.224 94.3168Z" fill="#455A64"/>
<path d="M167.668 86.1992C168.248 87.449 168.454 88.8903 168.255 90.2937C168.202 91.7167 167.737 93.0759 166.938 94.1469C167.367 92.8912 167.679 91.5842 167.866 90.249C167.922 88.8947 167.856 87.5372 167.668 86.1992Z" fill="#455A64"/>
<path d="M199.317 94.5674C199.298 94.6883 199.264 94.8056 199.218 94.916C199.088 95.2386 198.921 95.5393 198.723 95.81C197.972 96.7597 196.973 97.3888 195.883 97.598C194.272 97.8538 192.632 97.6765 191.087 97.0795C189.359 96.5521 187.44 95.7832 185.415 96.0604C183.39 96.3375 181.883 98.0987 180.086 98.7424C179.237 99.0314 178.341 99.0744 177.474 98.8675C176.73 98.6959 176.011 98.3946 175.343 97.9735C174.393 97.3547 173.507 96.6109 172.701 95.7564C172.393 95.4673 172.108 95.1472 171.848 94.7998C172.182 95.0459 172.5 95.3208 172.8 95.6223C173.633 96.4087 174.528 97.1002 175.472 97.6874C176.848 98.5747 178.461 98.8083 179.979 98.3401C180.851 97.9681 181.686 97.4854 182.469 96.9007C183.35 96.2531 184.334 95.8241 185.362 95.6402C187.516 95.3541 189.473 96.1676 191.186 96.704C192.678 97.3023 194.262 97.5128 195.83 97.3209C196.877 97.1399 197.849 96.5769 198.609 95.7117C198.868 95.3507 199.105 94.9683 199.317 94.5674Z" fill="#455A64"/>
<path d="M191.643 100.128C190.583 99.6177 189.433 99.4182 188.293 99.547C187.062 99.7125 185.857 100.083 184.715 100.647C183.306 101.382 181.865 102.03 180.398 102.587C178.888 103.132 177.276 103.157 175.754 102.658C174.52 102.251 173.381 101.517 172.427 100.513C171.782 99.8439 171.239 99.0519 170.82 98.1702C170.712 97.9372 170.617 97.6952 170.539 97.4461C170.478 97.2673 170.455 97.1779 170.47 97.1689C171.04 98.3337 171.768 99.3815 172.625 100.271C173.572 101.199 174.678 101.876 175.868 102.256C177.33 102.706 178.869 102.669 180.314 102.149C181.837 101.639 183.268 100.843 184.6 100.262C185.779 99.6962 187.024 99.3464 188.293 99.2251C189.152 99.1441 190.016 99.2782 190.828 99.6185C191.047 99.7123 191.259 99.829 191.46 99.9672C191.582 100.021 191.65 100.074 191.643 100.128Z" fill="#455A64"/>
<path d="M197.406 91.7961C197.406 91.7961 197.338 91.8855 197.201 92.0196C196.99 92.2092 196.768 92.3824 196.538 92.5381C195.681 93.1058 194.741 93.4816 193.767 93.6467C192.322 93.9015 190.851 93.8561 189.42 93.5126C187.692 93.0796 185.992 92.503 184.334 91.7872C182.691 91.0786 181 90.5343 179.279 90.1601C177.882 89.8574 176.45 89.8574 175.053 90.1601C174.404 90.2569 173.786 90.5488 173.261 91.0077C172.735 91.4665 172.32 92.0768 172.054 92.7795C172.054 92.7795 172.054 92.6633 172.099 92.4577C172.191 92.1572 172.319 91.874 172.48 91.6173C173.125 90.7144 174.005 90.086 174.985 89.8293C176.412 89.4478 177.889 89.3992 179.332 89.6863C181.077 90.038 182.792 90.5736 184.456 91.2865C186.101 92.0122 187.784 92.6094 189.496 93.0745C190.883 93.428 192.312 93.5066 193.721 93.307C195.024 93.1013 196.278 92.5873 197.406 91.7961Z" fill="#455A64"/>
<path d="M168.734 103.623C168.734 103.623 168.818 104.053 169.039 104.777C169.357 105.788 169.861 106.704 170.516 107.459C171.499 108.58 172.801 109.236 174.17 109.3C175.839 109.267 177.45 108.571 178.738 107.325C179.442 106.712 180.111 106.047 180.741 105.331C181.342 104.659 182 104.06 182.705 103.543C183.896 102.621 185.26 102.051 186.679 101.88C187.634 101.772 188.598 101.894 189.511 102.238C189.76 102.319 190.002 102.427 190.234 102.56C190.394 102.649 190.47 102.703 190.47 102.721C190.47 102.738 190.113 102.586 189.473 102.408C188.569 102.147 187.634 102.078 186.709 102.202C185.347 102.419 184.044 103 182.903 103.901C182.226 104.427 181.591 105.026 181.007 105.689C180.373 106.428 179.693 107.113 178.974 107.736C178.247 108.367 177.454 108.887 176.614 109.282C175.822 109.655 174.969 109.819 174.117 109.765C172.673 109.673 171.313 108.942 170.31 107.718C169.643 106.905 169.155 105.914 168.887 104.83C168.815 104.537 168.762 104.238 168.727 103.936C168.717 103.74 168.719 103.635 168.734 103.623Z" fill="#455A64"/>
<path d="M137.672 145.23L130.592 163.11L123.846 178.415L159.309 196.724L170.485 167.786C173.219 161.09 176.203 154.188 178.792 148.055C181.593 148.466 207.623 152.319 209.245 152.999C210.867 153.678 239.059 131.704 239.059 131.704C237.459 127.889 235.68 124.182 233.729 120.6C233.729 120.6 210.501 134.431 208.78 135.056C207.06 135.682 185.187 126.054 185.187 126.054C180.535 123.595 174.46 118.625 168.316 115.326C165.225 113.647 161.738 113.263 158.436 114.24C155.134 115.216 152.218 117.493 150.173 120.69C146.975 125.768 142.765 133.501 137.672 145.23Z" fill="#E28199"/>
<path d="M153.698 137.596C153.188 135.924 152.93 134.16 152.937 132.384C153.447 134.056 153.704 135.82 153.698 137.596Z" fill="#263238"/>
<path d="M157.337 147.331C156.446 148.062 155.482 148.662 154.467 149.119C153.504 149.729 152.482 150.197 151.422 150.514C152.314 149.785 153.278 149.185 154.292 148.726C155.254 148.115 156.277 147.646 157.337 147.331Z" fill="#263238"/>
<path d="M144.471 144.953C144.299 144.186 144.258 143.387 144.349 142.602C144.311 141.811 144.402 141.02 144.615 140.269C144.837 141.826 144.787 143.419 144.471 144.953Z" fill="#263238"/>
<path d="M147.151 152.14C146.327 152.526 145.46 152.77 144.577 152.864C143.715 153.107 142.828 153.197 141.943 153.133C142.763 152.735 143.632 152.491 144.516 152.409C145.378 152.166 146.266 152.076 147.151 152.14Z" fill="#263238"/>
<path d="M146.519 159.016C146.751 159.815 146.859 160.657 146.838 161.501C146.943 162.337 146.914 163.189 146.755 164.013C146.418 162.378 146.338 160.684 146.519 159.016Z" fill="#263238"/>
<path d="M139.05 161.527C138.356 162.143 137.586 162.628 136.766 162.967C135.986 163.448 135.149 163.791 134.284 163.986C134.977 163.371 135.748 162.885 136.568 162.547C137.348 162.064 138.184 161.721 139.05 161.527Z" fill="#263238"/>
<path d="M141.197 173.132C140.777 172.295 140.542 171.349 140.512 170.378C140.356 169.427 140.4 168.445 140.641 167.518C140.792 168.444 140.881 169.382 140.908 170.325C141.061 171.251 141.158 172.189 141.197 173.132Z" fill="#263238"/>
<path d="M133.393 176.118C133.359 175.408 133.455 174.698 133.675 174.035C133.769 173.33 133.996 172.659 134.337 172.068C134.372 172.778 134.276 173.489 134.056 174.151C133.961 174.856 133.735 175.528 133.393 176.118Z" fill="#263238"/>
<path d="M145.217 184.861C144.558 184.535 143.956 184.068 143.443 183.484C142.529 182.59 141.852 181.83 141.92 181.696C142.578 182.028 143.179 182.497 143.694 183.082C144.608 183.985 145.285 184.763 145.217 184.861Z" fill="#263238"/>
<path d="M151.033 173.194C150.669 174.919 149.874 176.476 148.749 177.664C149.035 176.86 149.401 176.098 149.838 175.394C150.163 174.609 150.564 173.871 151.033 173.194Z" fill="#263238"/>
<path d="M156.226 188.633C155.9 187.812 155.721 186.92 155.7 186.014C155.537 185.13 155.537 184.216 155.7 183.332C155.922 184.182 156.047 185.063 156.073 185.951C156.228 186.833 156.28 187.735 156.226 188.633Z" fill="#263238"/>
<path d="M162.286 177.11C162.286 177.11 162.362 177.039 162.514 177.003V177.182C161.674 177.417 160.822 177.587 159.964 177.691C159.036 177.901 158.088 177.961 157.147 177.87C158.04 177.504 158.973 177.29 159.918 177.235C160.771 177.094 161.63 177.016 162.491 177.003V177.182C162.37 177.164 162.286 177.137 162.286 177.11Z" fill="#263238"/>
<path d="M156.66 170.656C156.083 168.557 155.856 166.347 155.99 164.147C156.249 165.201 156.403 166.288 156.446 167.384C156.626 168.461 156.697 169.559 156.66 170.656Z" fill="#263238"/>
<path d="M166.389 163.843C165.001 164.489 163.573 165.012 162.118 165.407C163.389 164.425 164.869 163.883 166.389 163.843Z" fill="#263238"/>
<path d="M159.035 155.243C157.736 155.91 156.341 156.283 154.924 156.342C155.547 155.938 156.228 155.674 156.934 155.564C157.611 155.306 158.324 155.197 159.035 155.243Z" fill="#263238"/>
<path d="M165.453 154.206C165.152 153.149 164.977 152.048 164.935 150.934C164.761 149.838 164.717 148.719 164.806 147.608C165.11 148.665 165.287 149.766 165.331 150.88C165.501 151.977 165.542 153.096 165.453 154.206Z" fill="#263238"/>
<path d="M175.541 148.646C175.143 149.652 174.631 150.59 174.018 151.435C173.499 152.368 172.871 153.21 172.153 153.938C172.553 152.933 173.065 151.995 173.675 151.149C174.194 150.216 174.822 149.373 175.541 148.646Z" fill="#263238"/>
<path d="M170.257 147.251C170.213 146.266 170.3 145.28 170.516 144.327C170.607 143.349 170.825 142.394 171.163 141.493C171.207 142.478 171.12 143.464 170.904 144.417C170.813 145.394 170.595 146.35 170.257 147.251Z" fill="#263238"/>
<path d="M164.227 139.678C162.468 139.843 160.698 139.702 158.974 139.258C159.849 139.099 160.74 139.099 161.616 139.258C162.499 139.251 163.378 139.393 164.227 139.678Z" fill="#263238"/>
<path d="M149.983 125.16C149.522 126.211 149.014 127.231 148.46 128.218C148.004 129.279 147.495 130.309 146.937 131.302C147.126 130.117 147.517 128.988 148.087 127.985C148.548 126.901 149.193 125.94 149.983 125.16Z" fill="#263238"/>
<path d="M156.979 125.384C156.668 124.517 156.53 123.578 156.576 122.639C156.497 121.707 156.609 120.766 156.903 119.895C157.003 120.804 157.029 121.723 156.979 122.639C157.057 123.552 157.057 124.471 156.979 125.384Z" fill="#263238"/>
<path d="M164.92 116.336C164.248 116.673 163.537 116.896 162.811 116.997C162.11 117.246 161.381 117.373 160.649 117.373C161.977 116.615 163.445 116.258 164.92 116.336Z" fill="#263238"/>
<path d="M164.753 128.735C164.142 129.264 163.492 129.728 162.811 130.121C162.194 130.643 161.539 131.101 160.854 131.489C161.849 130.077 163.224 129.105 164.753 128.735Z" fill="#263238"/>
<path d="M168.719 125.982C168.055 125.46 167.468 124.814 166.983 124.069C166.405 123.423 165.917 122.675 165.537 121.852C166.792 123.003 167.869 124.4 168.719 125.982Z" fill="#263238"/>
<path d="M136.903 153.767C137.004 152.927 137.264 152.123 137.664 151.416C137.948 150.633 138.38 149.935 138.928 149.378C138.383 150.917 137.707 152.388 136.911 153.767H136.903Z" fill="#263238"/>
<path d="M127.904 176.306C127.997 175.451 128.224 174.623 128.574 173.865C128.8 173.044 129.151 172.278 129.609 171.604C129.513 172.458 129.286 173.285 128.939 174.044C128.709 174.863 128.358 175.628 127.904 176.306Z" fill="#263238"/>
<path d="M173.386 132.312C172.621 132.878 171.79 133.311 170.919 133.599C170.097 134.047 169.222 134.348 168.323 134.493C169.089 133.929 169.92 133.496 170.79 133.206C171.613 132.758 172.488 132.457 173.386 132.312Z" fill="#263238"/>
<path d="M180.642 126.581C179.886 126.309 179.16 125.934 178.479 125.464C177.743 125.13 177.041 124.701 176.386 124.186C177.963 124.515 179.435 125.343 180.642 126.581Z" fill="#455A64"/>
<path d="M180.436 137.541C180.03 136.774 179.799 135.896 179.766 134.994C179.597 134.106 179.624 133.184 179.842 132.312C180.019 133.168 180.123 134.042 180.154 134.922C180.317 135.783 180.412 136.66 180.436 137.541Z" fill="#263238"/>
<path d="M179.911 143.111C179.228 142.521 178.645 141.788 178.19 140.948C177.635 140.192 177.208 139.318 176.934 138.373C177.535 139.062 178.064 139.834 178.51 140.671C179.06 141.414 179.53 142.234 179.911 143.111Z" fill="#263238"/>
<path d="M188.11 142.003C188.164 142.128 187.463 142.62 186.588 143.246C185.712 143.871 185.065 144.39 184.981 144.283C184.897 144.175 185.506 143.487 186.374 142.852C186.88 142.397 187.479 142.104 188.11 142.003Z" fill="#263238"/>
<path d="M186.017 133.813C185.675 133.122 185.471 132.349 185.423 131.551C185.25 130.783 185.234 129.977 185.377 129.2C185.624 129.929 185.773 130.698 185.819 131.48C185.989 132.241 186.056 133.028 186.017 133.813Z" fill="#263238"/>
<path d="M193.287 137.023C192.414 137.193 191.524 137.215 190.645 137.086C189.763 137.106 188.883 136.97 188.034 136.684C188.905 136.513 189.792 136.492 190.668 136.621C191.554 136.595 192.437 136.731 193.287 137.023Z" fill="#263238"/>
<path d="M200.299 136.12C198.735 135.727 197.324 134.744 196.279 133.322C196.985 133.713 197.661 134.177 198.297 134.708C198.998 135.109 199.668 135.582 200.299 136.12Z" fill="#263238"/>
<path d="M196.767 147.223C194.872 147.441 192.961 147.354 191.087 146.964C192.027 146.775 192.986 146.739 193.934 146.857C194.889 146.82 195.842 146.944 196.767 147.223Z" fill="#263238"/>
<path d="M199.698 144.077C198.228 143.387 196.867 142.414 195.67 141.198C197.14 141.888 198.501 142.861 199.698 144.077Z" fill="#263238"/>
<path d="M205.979 143.818C205.66 143.099 205.468 142.311 205.415 141.502C205.228 140.724 205.168 139.911 205.24 139.106C205.55 139.83 205.741 140.616 205.804 141.422C205.991 142.2 206.051 143.013 205.979 143.818Z" fill="#263238"/>
<path d="M207.258 148.467C205.52 149.404 203.605 149.796 201.7 149.602C202.608 149.315 203.535 149.114 204.471 149.003C205.386 148.737 206.318 148.558 207.258 148.467Z" fill="#263238"/>
<path d="M211.894 147.089C211.816 145.605 212.008 144.117 212.458 142.727C212.536 144.211 212.344 145.699 211.894 147.089Z" fill="#263238"/>
<path d="M213.128 138.033C212.576 138.33 211.975 138.477 211.369 138.463C210.762 138.449 210.167 138.275 209.626 137.953C210.209 137.897 210.796 137.912 211.377 137.998C211.96 137.94 212.547 137.952 213.128 138.033Z" fill="#263238"/>
<path d="M217.406 136.263C217.456 134.529 217.773 132.821 218.343 131.221C218.382 132.088 218.289 132.957 218.069 133.786C217.974 134.651 217.75 135.49 217.406 136.263Z" fill="#263238"/>
<path d="M221.221 142.378C220.235 142.305 219.261 142.077 218.328 141.699C217.358 141.472 216.419 141.096 215.533 140.581C216.519 140.649 217.493 140.874 218.427 141.252C219.397 141.479 220.336 141.858 221.221 142.378Z" fill="#263238"/>
<path d="M226.527 136.71C226.079 137.221 225.545 137.617 224.959 137.872C224.429 138.262 223.835 138.515 223.215 138.614C223.664 138.103 224.198 137.707 224.784 137.452C225.314 137.063 225.908 136.81 226.527 136.71Z" fill="#263238"/>
<path d="M222.644 134.904C222.938 133.979 223.357 133.115 223.885 132.347C224.303 131.49 224.832 130.715 225.454 130.05C224.741 131.832 223.793 133.47 222.644 134.904Z" fill="#263238"/>
<path d="M230.631 125.714C229.936 126 229.205 126.142 228.469 126.134C227.741 126.267 226.999 126.252 226.276 126.089C227.696 125.655 229.172 125.528 230.631 125.714Z" fill="#263238"/>
<path d="M232.07 128.735C232.07 127.856 232.204 126.984 232.466 126.161C232.598 125.296 232.855 124.465 233.227 123.702C233.227 124.584 233.093 125.459 232.831 126.286C232.698 127.147 232.44 127.976 232.07 128.735Z" fill="#263238"/>
<path d="M233.029 132.526C232.364 132.735 231.673 132.799 230.989 132.714C230.302 132.771 229.613 132.677 228.956 132.437C229.619 132.217 230.312 132.154 230.996 132.249C231.683 132.18 232.374 132.275 233.029 132.526Z" fill="#263238"/>
</svg>
