<svg width="24" height="20" viewBox="0 0 24 20" fill="none" xmlns="http://www.w3.org/2000/svg">
<rect width="24" height="20" rx="5" fill="#DC2626"/>
<g clip-path="url(#clip0_42_6322)">
<path d="M8.00016 14.6667C8.00016 15.4 8.60016 16 9.3335 16H14.6668C15.4002 16 16.0002 15.4 16.0002 14.6667V8C16.0002 7.26667 15.4002 6.66667 14.6668 6.66667H9.3335C8.60016 6.66667 8.00016 7.26667 8.00016 8V14.6667ZM16.0002 4.66667H14.3335L13.8602 4.19333C13.7402 4.07333 13.5668 4 13.3935 4H10.6068C10.4335 4 10.2602 4.07333 10.1402 4.19333L9.66683 4.66667H8.00016C7.6335 4.66667 7.3335 4.96667 7.3335 5.33333C7.3335 5.7 7.6335 6 8.00016 6H16.0002C16.3668 6 16.6668 5.7 16.6668 5.33333C16.6668 4.96667 16.3668 4.66667 16.0002 4.66667Z" fill="white"/>
</g>
<defs>
<clipPath id="clip0_42_6322">
<rect width="16" height="16" fill="white" transform="translate(4 2)"/>
</clipPath>
</defs>
</svg>
