<svg width="24" height="20" viewBox="0 0 24 20" fill="none" xmlns="http://www.w3.org/2000/svg">
<rect width="24" height="20" rx="5" fill="#1176C4"/>
<g clip-path="url(#clip0_36_5687)">
<path d="M12.0001 5C8.66675 5 5.82008 7.07333 4.66675 10C5.82008 12.9267 8.66675 15 12.0001 15C15.3334 15 18.1801 12.9267 19.3334 10C18.1801 7.07333 15.3334 5 12.0001 5ZM12.0001 13.3333C10.1601 13.3333 8.66675 11.84 8.66675 10C8.66675 8.16 10.1601 6.66667 12.0001 6.66667C13.8401 6.66667 15.3334 8.16 15.3334 10C15.3334 11.84 13.8401 13.3333 12.0001 13.3333ZM12.0001 8C10.8934 8 10.0001 8.89333 10.0001 10C10.0001 11.1067 10.8934 12 12.0001 12C13.1067 12 14.0001 11.1067 14.0001 10C14.0001 8.89333 13.1067 8 12.0001 8Z" fill="white"/>
</g>
<defs>
<clipPath id="clip0_36_5687">
<rect width="16" height="16" fill="white" transform="translate(4 2)"/>
</clipPath>
</defs>
</svg>
